<?xml version="1.0" encoding="UTF-8" standalone="no"?>
<!-- Created with Inkscape (http://www.inkscape.org/) -->
<svg
   xmlns:dc="http://purl.org/dc/elements/1.1/"
   xmlns:cc="http://web.resource.org/cc/"
   xmlns:rdf="http://www.w3.org/1999/02/22-rdf-syntax-ns#"
   xmlns:svg="http://www.w3.org/2000/svg"
   xmlns="http://www.w3.org/2000/svg"
   xmlns:sodipodi="http://sodipodi.sourceforge.net/DTD/sodipodi-0.dtd"
   xmlns:inkscape="http://www.inkscape.org/namespaces/inkscape"
   width="744.09448819"
   height="1052.3622047"
   id="svg2"
   sodipodi:version="0.32"
   inkscape:version="0.44.1"
   sodipodi:docbase="/home/rob/svn/goodnight/trunk/web/svg"
   sodipodi:docname="terrain.svg">
  <defs
     id="defs4" />
  <sodipodi:namedview
     id="base"
     pagecolor="#ffffff"
     bordercolor="#666666"
     borderopacity="1.0"
     gridtolerance="10000"
     guidetolerance="10"
     objecttolerance="10"
     inkscape:pageopacity="0.0"
     inkscape:pageshadow="2"
     inkscape:zoom="0.50838011"
     inkscape:cx="372.04724"
     inkscape:cy="720.66776"
     inkscape:document-units="px"
     inkscape:current-layer="layer1"
     inkscape:window-width="1024"
     inkscape:window-height="743"
     inkscape:window-x="0"
     inkscape:window-y="0" />
  <metadata
     id="metadata7">
    <rdf:RDF>
      <cc:Work
         rdf:about="">
        <dc:format>image/svg+xml</dc:format>
        <dc:type
           rdf:resource="http://purl.org/dc/dcmitype/StillImage" />
      </cc:Work>
    </rdf:RDF>
  </metadata>
  <g
     inkscape:label="Layer 1"
     inkscape:groupmode="layer"
     id="layer1">
    <path
       style="fill:black"
       d="M 181.65477,732.78643 C 181.65477,730.60319 188.38512,727.95652 193.93724,727.95652 C 197.29456,727.95652 197.7643,727.46218 197.7643,723.92913 L 197.7643,719.90175 L 187.02462,719.90175 L 176.28492,719.90175 L 176.28492,711.84698 L 176.28492,703.79222 L 187.69585,703.79222 L 199.10676,703.79222 L 199.10676,715.87437 L 199.10676,727.95652 L 202.99051,727.95652 C 205.20434,727.95652 207.20652,728.82236 207.647,729.97022 C 208.20244,731.41766 210.46724,731.98391 215.70177,731.98391 C 220.93628,731.98391 223.20107,731.41766 223.75653,729.97022 C 224.34874,728.42691 226.89106,727.95652 234.63985,727.95652 L 244.75043,727.95652 L 244.75043,722.11243 L 244.75043,716.26834 L 234.47943,715.40013 C 228.83038,714.9226 219.31568,714.49515 213.33566,714.45022 L 202.46291,714.36854 L 209.51083,710.81642 C 213.38719,708.86275 216.55875,706.91008 216.55875,706.47714 C 216.55875,706.0442 213.38719,704.09153 209.51083,702.13786 L 202.46291,698.58574 L 215.21629,698.51361 C 222.23065,698.47392 232.0474,698.82657 237.03128,699.29727 L 246.09289,700.15309 L 246.09289,714.72604 L 246.09289,729.29898 L 252.61783,729.29898 C 256.20654,729.29898 261.94557,729.6832 265.37121,730.15266 C 271.35253,730.9725 271.59965,730.87276 271.59965,727.63855 C 271.59965,724.60753 270.96194,724.20536 265.22296,723.61696 C 261.71578,723.25738 256.73388,722.07988 254.15206,721.00029 L 249.45785,719.03739 L 256.06929,716.78465 C 259.70557,715.54564 264.98954,714.53191 267.81142,714.53191 L 272.94211,714.53191 L 272.94211,722.31818 C 272.94211,726.60063 273.66704,730.8294 274.55307,731.71542 C 276.79092,733.9533 285.31656,733.73247 288.45945,731.35537 C 289.89268,730.27133 293.33074,729.36516 296.09957,729.34167 C 300.22459,729.30668 301.13379,728.81407 301.13379,726.61405 C 301.13379,724.12423 300.23882,723.92913 288.81764,723.92913 L 276.50147,723.92913 L 279.42041,720.82207 C 283.22974,716.76722 283.10197,714.80361 278.73203,710.24237 L 275.12471,706.47714 L 288.80049,706.47714 L 302.47626,706.47714 L 302.47626,717.7814 L 302.47626,729.08565 L 306.83925,729.96378 C 314.11503,731.42813 315.90087,732.10863 315.90087,733.41685 C 315.90087,735.09641 310.90749,735.02163 309.85979,733.32637 C 309.40346,732.58802 308.31062,731.99317 307.43125,732.00445 C 306.47057,732.0168 306.63615,732.54439 307.8461,733.32637 C 309.16178,734.17655 287.63955,734.63487 245.75728,734.64829 C 191.65013,734.66561 181.65477,734.37524 181.65477,732.78643 z M 195.75061,731.98391 C 195.29428,731.24556 193.59733,730.68387 191.97961,730.73583 C 189.14385,730.82671 189.13464,730.87155 191.72322,731.98391 C 195.41832,733.57177 196.73195,733.57177 195.75061,731.98391 z M 234.68198,731.98391 C 234.22565,731.24556 231.92459,730.71287 229.56851,730.80026 L 225.28475,730.95908 L 229.31213,731.98391 C 235.15066,733.46948 235.60017,733.46948 234.68198,731.98391 z M 246.09289,731.98391 C 244.98536,731.26811 243.17304,730.68253 242.06551,730.68253 C 240.27557,730.68253 240.27557,730.82711 242.06551,731.98391 C 243.17304,732.69958 244.98536,733.28529 246.09289,733.28529 C 247.88284,733.28529 247.88284,733.14071 246.09289,731.98391 z M 264.21612,731.98391 C 263.75979,731.24556 262.06284,730.70159 260.44512,730.77529 C 257.70705,730.89987 257.73571,730.98338 260.85996,731.98391 C 262.70585,732.575 264.4028,733.11896 264.63096,733.19253 C 264.85913,733.2661 264.67245,732.72227 264.21612,731.98391 z M 300.46256,731.98391 C 300.00623,731.24556 298.61134,730.68387 297.36279,730.73583 C 295.51223,730.81275 295.58888,731.04338 297.77764,731.98391 C 301.36995,733.52761 301.4166,733.52761 300.46256,731.98391 z M 205.14783,730.64145 C 204.6915,729.9031 202.99455,729.30823 201.37683,729.31953 C 198.9856,729.33624 198.81212,729.58346 200.44922,730.64145 C 203.09403,732.35067 206.20418,732.35067 205.14783,730.64145 z M 271.59965,719.23052 C 271.59965,716.50007 270.94041,715.87437 268.06364,715.87437 C 266.11883,715.87437 262.10985,716.59874 259.1548,717.48411 L 253.78196,719.09384 L 258.32781,720.73813 C 260.82803,721.64248 264.83701,722.42837 267.23665,722.48454 C 271.02278,722.57317 271.59965,722.14292 271.59965,719.23052 z M 301.13379,715.20314 L 301.13379,707.8196 L 289.48887,707.8196 L 277.84394,707.8196 L 280.76288,710.92666 C 284.26011,714.6493 284.42703,716.85318 281.46004,720.13166 C 279.3249,722.49097 279.66508,722.58667 290.18604,722.58667 L 301.13379,722.58667 L 301.13379,715.20314 z M 197.7643,711.84698 L 197.7643,705.13468 L 187.69585,705.13468 L 177.62738,705.13468 L 177.62738,711.84698 L 177.62738,718.55929 L 187.69585,718.55929 L 197.7643,718.55929 L 197.7643,711.84698 z M 244.75043,707.8196 L 244.75043,701.1073 L 238.70936,701.1073 L 232.66828,701.1073 L 232.66828,707.8196 L 232.66828,714.53191 L 238.70936,714.53191 L 244.75043,714.53191 L 244.75043,707.8196 z M 229.98336,706.47714 L 229.98336,699.76483 L 219.57929,699.84811 L 209.17522,699.93139 L 214.88068,702.79752 C 218.01868,704.37389 220.58614,706.02971 220.58614,706.47714 C 220.58614,706.92457 218.01868,708.58039 214.88068,710.15676 L 209.17522,713.02289 L 219.57929,713.10617 L 229.98336,713.18944 L 229.98336,706.47714 z "
       id="path3016"
       inkscape:export-filename="/home/rob/svn/goodnight/trunk/web/gfx/army.png"
       inkscape:export-xdpi="34.74234"
       inkscape:export-ydpi="34.74234" />
    <path
       style="fill:black"
       d="M 166.21648,18.636237 C 166.21648,9.2390067 165.69117,3.1979367 164.87401,3.1979367 C 164.13566,3.1979367 163.53155,1.6876667 163.53155,-0.15821334 C 163.53155,-3.0247033 164.14584,-3.5143733 167.74186,-3.5143733 L 171.95217,-3.5143733 L 171.26859,-16.582943 C 170.67457,-27.939443 170.94946,-30.401654 173.36687,-35.377404 C 174.89688,-38.526624 176.51205,-41.103274 176.95615,-41.103274 C 177.40025,-41.103274 179.01544,-38.526624 180.54545,-35.377404 C 182.96286,-30.401654 183.23774,-27.939443 182.64373,-16.582943 L 181.96016,-3.5143733 L 186.17046,-3.5143733 C 190.26548,-3.5143733 190.38077,-3.6797833 190.38077,-9.5554433 C 190.38077,-12.878033 189.77666,-15.596523 189.03831,-15.596523 C 188.29995,-15.596523 187.69585,-17.106783 187.69585,-18.952673 C 187.69585,-21.170683 188.44378,-22.308823 189.90136,-22.308823 C 191.82463,-22.308823 192.01267,-23.683233 191.37076,-33.048514 L 190.63465,-43.788204 L 196.42184,-43.788204 L 202.20903,-43.788204 L 201.47291,-33.048514 C 200.81276,-23.417203 200.98038,-22.308823 203.097,-22.308823 C 205.1747,-22.308823 205.34677,-23.192593 204.53469,-29.692364 L 203.61218,-37.075894 L 216.52882,-37.075894 L 229.44545,-37.075894 L 228.53416,-29.021133 L 227.62287,-20.966363 L 235.1798,-20.966363 C 242.68143,-20.966363 242.73674,-20.995843 242.73674,-24.993743 C 242.73674,-27.208803 242.13263,-29.021133 241.39428,-29.021133 C 239.37459,-29.021133 239.78162,-34.312544 241.96962,-36.500554 C 246.07797,-40.608894 253.47643,-37.587854 253.47643,-31.801944 C 253.47643,-30.272494 252.87232,-29.021133 252.13397,-29.021133 C 251.39561,-29.021133 250.86158,-27.057783 250.94723,-24.658133 C 251.03288,-22.258483 251.37924,-21.352323 251.71691,-22.644443 C 252.05456,-23.936553 252.83024,-24.993743 253.44061,-24.993743 C 254.051,-24.993743 256.66477,-27.108123 259.24901,-29.692364 C 263.12723,-33.570584 264.93209,-34.390974 269.58596,-34.390974 C 274.23983,-34.390974 276.04469,-33.570584 279.92291,-29.692364 C 282.50715,-27.108123 285.17936,-24.993743 285.86115,-24.993743 C 286.59035,-24.993743 286.73198,-20.571573 286.20512,-14.254053 C 285.3907,-4.4884233 285.52785,-3.5143733 287.71729,-3.5143733 C 289.93403,-3.5143733 290.06328,-4.6862733 289.34607,-18.281443 L 288.56706,-33.048514 L 293.73171,-33.048514 C 296.57226,-33.048514 299.24875,-32.293374 299.67947,-31.370434 C 300.30594,-30.027974 300.61919,-30.027974 301.24566,-31.370434 C 301.67638,-32.293374 303.26467,-33.048514 304.77522,-33.048514 C 307.33827,-33.048514 307.46081,-32.510644 306.61038,-24.993743 L 305.69909,-16.938983 L 315.8342,-16.938983 C 325.07434,-16.938983 325.96932,-16.701883 325.96932,-14.254053 C 325.96932,-12.777353 325.36522,-11.569133 324.62686,-11.569133 C 323.88851,-11.569133 323.2844,-9.7568133 323.2844,-7.5417533 C 323.2844,-4.4093533 323.88104,-3.5143733 325.96932,-3.5143733 C 327.93827,-3.5143733 328.65425,-2.6193933 328.65425,-0.15821334 C 328.65425,1.6876667 328.05014,3.1979367 327.31178,3.1979367 C 326.50926,3.1979367 325.85391,9.5421867 325.68236,18.971847 L 325.39541,34.745767 L 324.96716,19.643087 C 324.57657,5.8680767 324.31541,4.5403967 321.9964,4.5403967 C 320.59802,4.5403967 319.17761,5.5975867 318.83996,6.8897067 C 318.37795,8.6576067 318.18747,8.4914867 318.07028,6.2184767 C 317.85656,2.0731367 312.54471,1.9505167 312.54471,6.0909267 C 312.54471,8.8085667 312.39592,8.8492567 310.0897,6.7621567 C 306.71027,3.7037967 298.17077,3.7893667 297.36058,6.8897067 C 296.89857,8.6576067 296.70809,8.4914867 296.59091,6.2184767 C 296.37719,2.0731367 291.06534,1.9505167 291.06534,6.0909267 C 291.06534,8.8085667 290.91654,8.8492567 288.61033,6.7621567 C 285.23089,3.7037967 276.69139,3.7893667 275.8812,6.8897067 C 275.4192,8.6576067 275.22871,8.4914867 275.11153,6.2184767 C 274.93375,2.7700667 269.58596,1.7956167 269.58596,5.2116267 C 269.58596,6.3191567 270.49212,7.2253167 271.59965,7.2253167 C 272.71837,7.2253167 273.61334,8.4186167 273.61334,9.9102367 C 273.61334,11.386947 273.00924,12.595167 272.27088,12.595167 C 271.50647,12.595167 270.81077,17.364067 270.65516,23.670467 L 270.38192,34.745767 L 269.92964,23.670467 C 269.52332,13.720197 269.21015,12.595167 266.84675,12.595167 C 264.45344,12.595167 264.21612,13.564017 264.21612,23.334847 C 264.21612,31.986257 263.82456,34.074537 262.20243,34.074537 C 260.68418,34.074537 260.18873,32.442547 260.18873,27.441467 C 260.18873,21.471437 257.72057,16.643527 256.51598,20.257287 C 256.20418,21.192687 254.34318,21.299567 251.10081,20.568297 C 247.66054,19.792387 245.85098,19.941337 245.14051,21.058867 C 244.57258,21.952207 244.0142,22.068477 243.88095,21.321157 C 243.74929,20.582807 243.23439,23.301287 242.73674,27.362237 C 241.83457,34.724057 241.83126,34.715187 241.6131,24.341697 C 241.41463,14.905537 241.1445,13.937627 238.70936,13.937627 C 236.2631,13.937627 236.02444,14.832597 236.02444,24.006077 C 236.02444,32.060847 235.6217,34.074537 234.01075,34.074537 C 232.38861,34.074537 231.99705,31.986257 231.99705,23.334847 C 231.99705,16.353007 231.47505,12.595167 230.50519,12.595167 C 229.52727,12.595167 229.31699,10.976477 229.89479,7.8965467 C 230.66877,3.7708967 230.44142,3.1979367 228.0305,3.1979367 C 226.11389,3.1979367 225.28475,4.0715367 225.28475,6.0909267 C 225.28475,8.8085667 225.13595,8.8492567 222.82974,6.7621567 C 219.45031,3.7037967 210.9108,3.7893667 210.10062,6.8897067 C 209.63861,8.6576067 209.44813,8.4914867 209.33094,6.2184767 C 209.11722,2.0731367 203.80537,1.9505167 203.80537,6.0909267 C 203.80537,8.8085667 203.65657,8.8492567 201.35036,6.7621567 C 200.0001,5.5401767 198.42299,4.5403967 197.84566,4.5403967 C 197.26834,4.5403967 196.96063,9.2222267 197.16188,14.944467 C 197.36313,20.666707 197.42997,27.311887 197.31043,29.711537 L 197.09307,34.074537 L 181.65477,34.074537 L 166.21648,34.074537 L 166.21648,18.636237 z M 260.18873,16.622547 C 260.18873,15.865267 256.3851,15.280087 251.46274,15.280087 C 246.54038,15.280087 242.73674,15.865267 242.73674,16.622547 C 242.73674,17.379827 246.54038,17.965007 251.46274,17.965007 C 256.3851,17.965007 260.18873,17.379827 260.18873,16.622547 z M 259.18189,13.048537 C 258.25895,12.676127 257.50381,11.213537 257.50381,9.7983767 C 257.50381,7.7445867 258.46803,7.2253167 262.28166,7.2253167 C 265.12503,7.2253167 266.72357,6.6817867 266.22981,5.8828567 C 265.77348,5.1445067 263.06364,4.5403967 260.20794,4.5403967 C 256.39187,4.5403967 254.85304,5.1630467 254.40183,6.8897067 C 253.93982,8.6576067 253.74934,8.4914867 253.63215,6.2184767 C 253.41844,2.0731367 248.10659,1.9505167 248.10659,6.0909267 C 248.10659,8.8085667 247.95779,8.8492567 245.65157,6.7621567 C 242.97284,4.3379267 231.99705,3.6311367 231.99705,5.8828567 C 231.99705,6.6212067 235.01759,7.2253167 238.70936,7.2253167 C 244.42941,7.2253167 245.42166,7.6056767 245.42166,9.7983767 C 245.42166,11.213537 244.66653,12.676127 243.74359,13.048537 C 242.82065,13.420947 246.29426,13.725657 251.46274,13.725657 C 256.63121,13.725657 260.10483,13.420947 259.18189,13.048537 z M 244.0792,9.9102367 C 244.0792,9.1718867 241.96483,8.5677767 239.38059,8.5677767 C 236.79635,8.5677767 234.68198,9.1718867 234.68198,9.9102367 C 234.68198,10.648597 236.79635,11.252697 239.38059,11.252697 C 241.96483,11.252697 244.0792,10.648597 244.0792,9.9102367 z M 272.27088,9.9102367 C 272.27088,9.1718867 270.15651,8.5677767 267.57227,8.5677767 C 264.98803,8.5677767 262.87366,9.1718867 262.87366,9.9102367 C 262.87366,10.648597 264.98803,11.252697 267.57227,11.252697 C 270.15651,11.252697 272.27088,10.648597 272.27088,9.9102367 z M 327.31178,-0.15821334 C 327.31178,-1.9207733 319.10786,-2.1719133 261.5312,-2.1719133 C 203.95453,-2.1719133 195.75061,-1.9207733 195.75061,-0.15821334 C 195.75061,1.6043367 203.95453,1.8554767 261.5312,1.8554767 C 319.10786,1.8554767 327.31178,1.6043367 327.31178,-0.15821334 z M 180.82781,-13.247213 C 180.74216,-18.600273 180.39581,-21.922863 180.05814,-20.630743 C 179.72048,-19.338633 178.92869,-18.281443 178.29861,-18.281443 C 177.66854,-18.281443 176.87675,-19.338633 176.53909,-20.630743 C 176.20142,-21.922863 175.85507,-19.506433 175.76942,-15.260903 C 175.68157,-10.905963 176.19878,-7.5417533 176.95615,-7.5417533 C 177.69451,-7.5417533 178.29861,-6.6355933 178.29861,-5.5280633 C 178.29861,-4.4205333 178.90272,-3.5143733 179.64108,-3.5143733 C 180.42693,-3.5143733 180.91896,-7.5498033 180.82781,-13.247213 z M 203.80537,-6.1992933 C 203.80537,-7.6909133 204.70035,-8.8842133 205.81906,-8.8842133 C 206.93778,-8.8842133 207.83276,-7.6909133 207.83276,-6.1992933 C 207.83276,-4.7225833 208.43686,-3.5143733 209.17522,-3.5143733 C 211.07876,-3.5143733 210.84881,-13.890953 208.91883,-15.083743 C 208.03947,-15.627223 207.08458,-15.365643 206.79685,-14.502463 C 206.40301,-13.320943 205.56977,-13.309783 203.42563,-14.457293 C 201.29231,-15.599003 200.44846,-15.594213 200.06312,-14.438203 C 199.78016,-13.589363 198.99615,-13.236343 198.32087,-13.653693 C 197.64558,-14.071043 197.09307,-11.960433 197.09307,-8.9634433 C 197.09307,-4.0460833 197.42055,-3.5143733 200.44922,-3.5143733 C 202.91039,-3.5143733 203.80537,-4.2303433 203.80537,-6.1992933 z M 226.62721,-16.188513 C 226.62721,-24.544783 226.08251,-29.199313 225.02837,-29.850814 C 224.149,-30.394294 223.19411,-30.132714 222.90638,-29.269533 C 222.51254,-28.088013 221.6793,-28.076853 219.53516,-29.224363 C 217.40184,-30.366074 216.55799,-30.361284 216.17265,-29.205273 C 215.8897,-28.356433 215.23249,-27.925033 214.7122,-28.246593 C 214.1919,-28.568173 213.67489,-23.134963 213.56329,-16.172813 L 213.36039,-3.5143733 L 219.9938,-3.5143733 L 226.62721,-3.5143733 L 226.62721,-16.188513 z M 218.81889,-20.630743 C 219.07177,-22.828553 220.05856,-24.322513 221.25737,-24.322513 C 222.45617,-24.322513 223.44296,-22.828553 223.69584,-20.630743 C 224.04175,-17.624533 223.58893,-16.938983 221.25737,-16.938983 C 218.92581,-16.938983 218.47298,-17.624533 218.81889,-20.630743 z M 234.0952,-7.6812333 C 236.26381,-9.9730133 239.24634,-12.351143 240.72305,-12.965983 C 242.61089,-13.751993 241.11634,-14.109123 235.68882,-14.168963 L 227.96967,-14.254053 L 227.96967,-8.8842133 C 227.96967,-5.9308033 228.46076,-3.5143733 229.06097,-3.5143733 C 229.66118,-3.5143733 231.92659,-5.3894533 234.0952,-7.6812333 z M 230.65459,-10.897903 C 230.65459,-12.005433 231.2587,-12.911593 231.99705,-12.911593 C 232.73541,-12.911593 233.33951,-12.005433 233.33951,-10.897903 C 233.33951,-9.7903733 232.73541,-8.8842133 231.99705,-8.8842133 C 231.2587,-8.8842133 230.65459,-9.7903733 230.65459,-10.897903 z M 256.83258,-7.5417533 C 254.0776,-10.417333 251.71202,-11.569133 248.56113,-11.569133 C 245.01561,-11.569133 243.73877,-10.777473 242.06551,-7.5417533 L 239.98287,-3.5143733 L 250.33696,-3.5143733 L 260.69106,-3.5143733 L 256.83258,-7.5417533 z M 267.14329,-6.5349033 C 267.42485,-8.5174833 268.4949,-9.5554433 270.25719,-9.5554433 C 272.01948,-9.5554433 273.08953,-8.5174833 273.3711,-6.5349033 C 273.73288,-3.9875833 274.62674,-3.5143733 279.07656,-3.5143733 L 284.35303,-3.5143733 L 284.33248,-9.8910633 C 284.31761,-14.503043 283.95178,-15.710483 283.01057,-14.254053 C 281.89844,-12.533153 281.70624,-12.581953 281.68866,-14.589673 C 281.67736,-15.881793 280.76195,-16.938983 279.65442,-16.938983 C 278.54689,-16.938983 277.64073,-15.958853 277.64073,-14.760913 C 277.64073,-13.044163 277.24187,-12.913863 275.75759,-14.145703 C 274.31152,-15.345843 273.71294,-15.306093 273.17864,-13.974473 C 272.73617,-12.871683 272.44426,-13.095663 272.37687,-14.589673 C 272.24033,-17.616303 268.2435,-17.681213 268.2435,-14.656793 C 268.2435,-12.881763 267.88551,-12.732603 266.63255,-13.985563 C 263.79397,-16.824143 262.87366,-15.739503 262.87366,-9.5554433 C 262.87366,-5.2111233 263.41302,-3.5143733 264.79398,-3.5143733 C 265.85016,-3.5143733 266.90735,-4.8736133 267.14329,-6.5349033 z M 270.92842,-4.8568333 C 270.92842,-5.5951833 270.32431,-6.1992933 269.58596,-6.1992933 C 268.84761,-6.1992933 268.2435,-5.5951833 268.2435,-4.8568333 C 268.2435,-4.1184733 268.84761,-3.5143733 269.58596,-3.5143733 C 270.32431,-3.5143733 270.92842,-4.1184733 270.92842,-4.8568333 z M 299.1201,-7.5417533 C 299.1201,-9.7568133 298.516,-11.569133 297.77764,-11.569133 C 297.03929,-11.569133 296.43518,-12.777353 296.43518,-14.254053 C 296.43518,-16.342333 297.33016,-16.938983 300.46256,-16.938983 C 303.59497,-16.938983 304.48995,-17.535623 304.48995,-19.623903 C 304.48995,-21.797413 303.59497,-22.308823 299.79133,-22.308823 L 295.09272,-22.308823 L 295.09272,-12.911593 C 295.09272,-5.4534733 295.50824,-3.5143733 297.10641,-3.5143733 C 298.44887,-3.5143733 299.1201,-4.8568333 299.1201,-7.5417533 z M 299.1201,-19.623903 C 299.1201,-20.362253 299.72421,-20.966363 300.46256,-20.966363 C 301.20092,-20.966363 301.80503,-20.362253 301.80503,-19.623903 C 301.80503,-18.885553 301.20092,-18.281443 300.46256,-18.281443 C 299.72421,-18.281443 299.1201,-18.885553 299.1201,-19.623903 z M 316.5721,-5.5280633 C 316.5721,-6.6355933 317.1762,-7.5417533 317.91456,-7.5417533 C 318.65291,-7.5417533 319.25702,-6.6355933 319.25702,-5.5280633 C 319.25702,-4.4205333 319.86113,-3.5143733 320.59948,-3.5143733 C 321.33783,-3.5143733 321.94194,-5.0246433 321.94194,-6.8705233 C 321.94194,-10.043613 321.5392,-10.226673 314.55841,-10.226673 C 307.57761,-10.226673 307.17487,-10.043613 307.17487,-6.8705233 C 307.17487,-3.9298933 307.7566,-3.5143733 311.87348,-3.5143733 C 315.15505,-3.5143733 316.5721,-4.1216733 316.5721,-5.5280633 z M 249.44905,-20.295133 C 249.44905,-25.963293 248.98123,-27.678663 247.43535,-27.678663 C 245.88948,-27.678663 245.42166,-25.963293 245.42166,-20.295133 C 245.42166,-14.626963 245.88948,-12.911593 247.43535,-12.911593 C 248.98123,-12.911593 249.44905,-14.626963 249.44905,-20.295133 z M 246.87011,-24.210643 C 246.81182,-25.625813 247.12911,-26.418713 247.5752,-25.972623 C 248.02129,-25.526543 248.06898,-24.368673 247.68117,-23.399573 C 247.25263,-22.328653 246.93452,-22.646743 246.87011,-24.210643 z M 324.62686,-14.254053 C 324.62686,-15.029703 320.37573,-15.596523 314.55841,-15.596523 C 308.74108,-15.596523 304.48995,-15.029703 304.48995,-14.254053 C 304.48995,-13.478413 308.74108,-12.911593 314.55841,-12.911593 C 320.37573,-12.911593 324.62686,-13.478413 324.62686,-14.254053 z M 213.2026,-18.952673 C 213.2026,-20.550843 211.2635,-20.966363 203.80537,-20.966363 C 196.34725,-20.966363 194.40815,-20.550843 194.40815,-18.952673 C 194.40815,-17.354503 196.34725,-16.938983 203.80537,-16.938983 C 211.2635,-16.938983 213.2026,-17.354503 213.2026,-18.952673 z M 242.73674,-18.281443 C 242.73674,-19.019793 239.41415,-19.623903 235.35321,-19.623903 C 231.29226,-19.623903 227.96967,-19.019793 227.96967,-18.281443 C 227.96967,-17.543083 231.29226,-16.938983 235.35321,-16.938983 C 239.41415,-16.938983 242.73674,-17.543083 242.73674,-18.281443 z M 285.69549,-20.966363 C 285.69549,-23.452403 284.80052,-23.651283 273.61334,-23.651283 C 262.42617,-23.651283 261.5312,-23.452403 261.5312,-20.966363 C 261.5312,-18.480323 262.42617,-18.281443 273.61334,-18.281443 C 284.80052,-18.281443 285.69549,-18.480323 285.69549,-20.966363 z M 199.77799,-29.692364 C 199.77799,-35.360524 199.31017,-37.075894 197.7643,-37.075894 C 196.21843,-37.075894 195.75061,-35.360524 195.75061,-29.692364 C 195.75061,-24.024193 196.21843,-22.308823 197.7643,-22.308823 C 199.31017,-22.308823 199.77799,-24.024193 199.77799,-29.692364 z M 197.19906,-32.265414 C 197.14077,-33.680584 197.45806,-34.473484 197.90414,-34.027394 C 198.35023,-33.581304 198.39793,-32.423434 198.01012,-31.454344 C 197.58158,-30.383414 197.26347,-30.701514 197.19906,-32.265414 z M 182.326,-27.007433 C 182.326,-28.349903 180.98354,-29.021133 178.29861,-29.021133 C 175.61369,-29.021133 174.27124,-28.349903 174.27124,-27.007433 C 174.27124,-25.664973 175.61369,-24.993743 178.29861,-24.993743 C 180.98354,-24.993743 182.326,-25.664973 182.326,-27.007433 z M 281.66811,-26.238773 C 281.66811,-28.400873 274.72479,-33.048514 271.49474,-33.048514 C 268.71301,-33.048514 264.21612,-28.716953 264.21612,-26.037493 C 264.21612,-25.463433 268.14282,-24.993743 272.94211,-24.993743 C 277.74141,-24.993743 281.66811,-25.554013 281.66811,-26.238773 z M 305.83241,-28.349903 C 305.83241,-30.195784 305.2283,-31.706054 304.48995,-31.706054 C 303.75159,-31.706054 303.14749,-31.101944 303.14749,-30.363594 C 303.14749,-29.625234 301.93927,-29.021133 300.46256,-29.021133 C 298.98586,-29.021133 297.77764,-29.625234 297.77764,-30.363594 C 297.77764,-31.101944 296.87148,-31.706054 295.76395,-31.706054 C 294.51099,-31.706054 293.75026,-30.438174 293.75026,-28.349903 C 293.75026,-25.267203 294.2425,-24.993743 299.79133,-24.993743 C 305.34017,-24.993743 305.83241,-25.267203 305.83241,-28.349903 z M 180.93597,-31.370434 C 180.9098,-31.924204 180.02505,-33.887554 178.96985,-35.733434 C 177.59961,-38.130424 177.03769,-38.449554 177.00373,-36.850084 C 176.97757,-35.618344 176.58947,-33.654994 176.14129,-32.487084 C 175.55713,-30.964794 176.12726,-30.363594 178.15498,-30.363594 C 179.71068,-30.363594 180.96212,-30.816674 180.93597,-31.370434 z M 252.13397,-32.377284 C 252.13397,-33.719744 250.79151,-34.390974 248.10659,-34.390974 C 245.42166,-34.390974 244.0792,-33.719744 244.0792,-32.377284 C 244.0792,-31.034824 245.42166,-30.363594 248.10659,-30.363594 C 250.79151,-30.363594 252.13397,-31.034824 252.13397,-32.377284 z M 227.96967,-33.719744 C 227.96967,-35.303164 226.10514,-35.733434 219.24367,-35.733434 C 212.38221,-35.733434 210.51768,-35.303164 210.51768,-33.719744 C 210.51768,-32.136324 212.38221,-31.706054 219.24367,-31.706054 C 226.10514,-31.706054 227.96967,-32.136324 227.96967,-33.719744 z M 248.3583,-36.650484 C 247.3892,-37.038284 246.23133,-36.990594 245.78524,-36.544514 C 245.33916,-36.098424 246.13205,-35.781134 247.54722,-35.839424 C 249.11112,-35.903834 249.42922,-36.221944 248.3583,-36.650484 z M 201.12045,-41.103274 C 201.12045,-41.841634 199.61018,-42.445744 197.7643,-42.445744 C 195.91841,-42.445744 194.40815,-41.841634 194.40815,-41.103274 C 194.40815,-40.364924 195.91841,-39.760814 197.7643,-39.760814 C 199.61018,-39.760814 201.12045,-40.364924 201.12045,-41.103274 z M 245.42166,30.315647 C 245.42166,25.843777 247.59285,23.334847 251.46274,23.334847 C 255.33262,23.334847 257.50381,25.843777 257.50381,30.315647 C 257.50381,33.875657 257.18419,34.074537 251.46274,34.074537 C 245.74129,34.074537 245.42166,33.875657 245.42166,30.315647 z M 287.03795,26.019777 C 287.03795,24.543067 287.64206,23.334847 288.38042,23.334847 C 289.11877,23.334847 289.72288,24.543067 289.72288,26.019777 C 289.72288,27.496477 289.11877,28.704697 288.38042,28.704697 C 287.64206,28.704697 287.03795,27.496477 287.03795,26.019777 z M 307.17487,20.649927 C 307.17487,19.173217 307.77898,17.965007 308.51733,17.965007 C 309.25568,17.965007 309.85979,19.173217 309.85979,20.649927 C 309.85979,22.126637 309.25568,23.334847 308.51733,23.334847 C 307.77898,23.334847 307.17487,22.126637 307.17487,20.649927 z M 237.57887,19.307467 C 237.57887,17.461587 237.88357,16.706447 238.25598,17.629387 C 238.62839,18.552337 238.62839,20.062597 238.25598,20.985547 C 237.88357,21.908487 237.57887,21.153347 237.57887,19.307467 z M 265.77055,19.307467 C 265.77055,17.461587 266.07525,16.706447 266.44766,17.629387 C 266.82008,18.552337 266.82008,20.062597 266.44766,20.985547 C 266.07525,21.908487 265.77055,21.153347 265.77055,19.307467 z M 211.86014,17.965007 C 211.86014,16.488297 212.46425,15.280087 213.2026,15.280087 C 213.94095,15.280087 214.54506,16.488297 214.54506,17.965007 C 214.54506,19.441717 213.94095,20.649927 213.2026,20.649927 C 212.46425,20.649927 211.86014,19.441717 211.86014,17.965007 z "
       id="path3028"
       inkscape:export-filename="/home/rob/svn/goodnight/trunk/web/gfx/city.png"
       inkscape:export-xdpi="34.74234"
       inkscape:export-ydpi="34.74234" />
    <path
       style="fill:black"
       d="M 197.21804,1075.471 C 197.95191,1072.6647 193.48276,1071.2544 183.85602,1071.2544 C 178.53095,1071.2544 178.4841,1071.2122 180.87574,1068.5695 C 183.13455,1066.0735 183.14275,1065.8845 180.99238,1065.8845 C 178.95603,1065.8845 179.04341,1065.3731 181.72257,1061.6106 C 183.81047,1058.6784 184.25445,1057.1661 183.13676,1056.7935 C 182.07058,1056.4381 182.72699,1054.8013 185.0363,1052.0568 C 187.2541,1049.4211 187.979,1047.6679 186.9876,1047.3374 C 185.9102,1046.9783 186.14046,1046.0047 187.71405,1044.2659 C 188.99466,1042.8509 189.34719,1041.7203 188.50779,1041.7203 C 187.67727,1041.7203 188.52672,1039.4672 190.39548,1036.7134 C 192.26425,1033.9596 193.25047,1031.5256 192.5871,1031.3045 C 191.92372,1031.0833 193.09502,1027.3037 195.18995,1022.9053 C 197.28491,1018.5069 199.02428,1013.8426 199.05524,1012.5403 C 199.12845,1009.4592 204.23515,1018.6549 204.31253,1022.0072 C 204.34348,1023.3479 205.09489,1025.7643 205.98232,1027.377 C 206.86975,1028.9898 207.73023,1031.1175 207.89451,1032.1052 C 208.05877,1033.0929 209.23865,1035.0562 210.51644,1036.4682 C 212.01169,1038.1204 212.25451,1039.0353 211.19775,1039.0353 C 210.15841,1039.0353 210.56017,1040.4458 212.29249,1042.8786 C 213.79766,1044.9924 214.66313,1047.088 214.21575,1047.5353 C 213.76837,1047.9827 214.37469,1049.8328 215.56312,1051.6465 C 216.81857,1053.5626 217.15839,1055.1328 216.37418,1055.3942 C 215.63182,1055.6417 216.90794,1058.4053 219.20999,1061.5356 C 221.51204,1064.6659 222.66519,1067.227 221.77256,1067.227 C 220.55091,1067.227 220.52687,1067.6816 221.6753,1069.0654 C 222.9323,1070.58 221.55745,1071.0657 213.8687,1071.8233 C 205.68876,1072.6294 204.46574,1073.1069 203.96419,1075.6904 L 203.39198,1078.6379 L 203.20916,1075.6174 C 202.9831,1071.8825 200.34142,1071.5733 200.34142,1075.2818 C 200.34142,1076.7585 199.49182,1077.9667 198.45341,1077.9667 C 197.27404,1077.9667 196.81036,1077.03 197.21804,1075.471 z M 213.76603,1068.638 C 217.08862,1068.0468 218.90094,1067.445 217.79341,1067.3007 C 216.2152,1067.095 216.28795,1066.8371 218.12979,1066.108 C 220.30247,1065.2479 220.25181,1064.8514 217.45856,1060.8557 C 215.79685,1058.4786 213.22905,1056.485 211.75234,1056.4254 C 209.36434,1056.3291 209.41772,1056.1769 212.23505,1055.0486 C 215.27391,1053.8317 215.31358,1053.6441 213.21094,1050.4351 C 211.82051,1048.313 211.57959,1047.0901 212.55196,1047.0901 C 213.39496,1047.0901 212.47199,1044.9757 210.5009,1042.3915 C 208.5298,1039.8072 207.56586,1037.6929 208.35881,1037.6929 C 209.22691,1037.6929 209.0131,1036.4911 207.82141,1034.6723 C 206.73289,1033.011 205.86867,1031.3497 205.9009,1030.9806 C 205.93315,1030.6114 205.34138,1028.7991 204.58585,1026.9532 C 203.83032,1025.1073 202.7724,1021.7847 202.23492,1019.5696 L 201.25768,1015.5423 L 200.27878,1020.9121 C 199.64329,1024.3982 199.82257,1026.6098 200.78987,1027.2166 C 201.74447,1027.8154 201.36388,1028.5027 199.73072,1029.1294 C 197.2371,1030.0863 197.23792,1030.13 199.76834,1031.1371 C 202.24776,1032.1238 202.23622,1032.2025 199.49054,1033.0318 C 195.9833,1034.0912 196.65134,1038.1791 200.80744,1041.0901 C 203.53397,1042.9998 203.48583,1043.0627 199.29767,1043.0627 C 194.24573,1043.0627 193.75723,1044.7448 197.95521,1047.6852 C 200.86226,1049.7214 200.868,1049.775 198.17894,1049.775 C 193.85884,1049.775 194.93614,1053.576 199.55832,1054.6418 L 203.69757,1055.5962 L 197.6565,1057.2004 L 191.61542,1058.8045 L 197.6565,1061.6438 L 203.69757,1064.4831 L 198.99896,1064.5332 C 196.41472,1064.5607 193.40872,1065.147 192.31897,1065.8362 C 190.70095,1066.8594 190.94713,1067.3324 193.66143,1068.4154 C 197.66202,1070.0118 205.55432,1070.0992 213.76603,1068.638 z M 256.72478,1076.1054 C 256.72478,1074.9438 254.57193,1073.9213 250.99716,1073.3853 C 247.84697,1072.9129 243.46719,1071.0671 241.26432,1069.2837 L 237.2591,1066.041 L 239.65093,1061.7525 C 241.92081,1057.6827 241.92415,1057.3329 239.71643,1054.8934 C 237.50043,1052.4447 237.54484,1052.0395 240.65271,1046.3503 C 242.44715,1043.0654 244.39397,1040.3778 244.97899,1040.3778 C 245.564,1040.3778 246.7262,1038.8776 247.56165,1037.0439 C 249.4197,1032.966 257.62881,1030.8307 259.96022,1033.819 C 260.76496,1034.8505 263.23572,1036.3107 265.45078,1037.0639 C 269.02699,1038.2801 269.81916,1038.0288 272.52207,1034.8211 C 274.44653,1032.5372 277.51181,1030.8799 280.85692,1030.3148 C 285.48808,1029.5323 287.07553,1030.0366 293.58694,1034.3586 C 297.67842,1037.0744 301.02599,1039.8173 301.02599,1040.454 C 301.02599,1041.0907 302.4658,1042.9953 304.22556,1044.6865 C 307.70231,1048.0277 310.04229,1057.0771 307.78953,1058.4694 C 306.99695,1058.9592 307.95485,1060.642 310.05402,1062.4477 C 313.24188,1065.1897 313.46153,1065.8549 311.82893,1067.822 C 308.93171,1071.313 301.34149,1073.9393 294.14975,1073.9393 C 288.86751,1073.9393 287.57127,1074.3936 287.44566,1076.2886 C 287.29734,1078.5261 287.2607,1078.5261 286.67599,1076.2886 C 285.92598,1073.4186 283.574,1073.1642 283.574,1075.953 C 283.574,1077.0605 282.96989,1077.9667 282.23154,1077.9667 C 281.49319,1077.9667 280.88908,1077.131 280.88908,1076.1096 C 280.88908,1073.6181 277.01902,1072.7576 269.58298,1073.5958 C 265.19256,1074.0906 263.39261,1074.9097 263.28136,1076.4632 C 263.15109,1078.2824 263.02526,1078.2539 262.51169,1076.2886 C 261.76168,1073.4186 259.4097,1073.1642 259.4097,1075.953 C 259.4097,1077.0605 258.8056,1077.9667 258.06724,1077.9667 C 257.32889,1077.9667 256.72478,1077.1291 256.72478,1076.1054 z M 275.97962,1068.6461 C 276.8676,1067.7581 276.25693,1066.9168 274.1619,1066.1418 C 271.11858,1065.016 271.16012,1064.944 275.33568,1064.1089 C 279.10747,1063.3546 279.48636,1062.9105 278.28054,1060.6574 C 277.43673,1059.0807 274.66342,1057.6534 271.17374,1056.9997 L 265.45078,1055.9277 L 270.80763,1055.2007 C 277.60317,1054.2784 278.16614,1051.7197 272.87698,1045.7954 C 270.63845,1043.2881 268.80693,1040.7647 268.80693,1040.1878 C 268.80693,1039.6108 266.30685,1038.4656 263.25121,1037.6428 C 258.5544,1036.3781 257.36103,1036.4866 255.53206,1038.3444 C 253.5411,1040.3667 253.57636,1040.6959 255.97452,1042.4735 C 258.49062,1044.3386 258.46748,1044.4059 255.30329,1044.4257 C 251.9693,1044.4466 247.55839,1046.4965 248.70889,1047.4904 C 249.05669,1047.7908 250.54946,1048.7114 252.02617,1049.5362 C 253.50288,1050.361 253.9203,1051.0542 252.95378,1051.0767 C 249.95596,1051.1463 252.68136,1053.7999 255.79717,1053.8451 C 258.67233,1053.8868 258.67988,1053.9321 256.13258,1055.8588 C 254.69934,1056.9428 251.98086,1057.8615 250.09151,1057.9002 L 246.65632,1057.9706 L 249.67686,1060.0776 C 251.33816,1061.2365 252.6974,1063.2102 252.6974,1064.4636 C 252.6974,1068.073 260.46022,1071.14 268.03291,1070.5223 C 271.66813,1070.2259 275.24415,1069.3815 275.97962,1068.6461 z M 309.92489,1068.3012 C 313.13562,1065.0897 310.23892,1061.913 303.88215,1061.6744 C 300.94738,1061.5642 300.1738,1061.2654 301.93535,1060.9225 C 306.58096,1060.0182 307.89582,1057.4505 306.69291,1051.6317 C 305.83505,1047.4821 304.94191,1046.3272 302.31379,1045.9696 C 300.49796,1045.7225 298.4082,1044.9315 297.66984,1044.212 C 296.7913,1043.3558 297.13922,1043.2127 298.67669,1043.798 C 299.97749,1044.2933 301.02599,1044.072 301.02599,1043.3022 C 301.02599,1041.3617 297.49959,1038.0428 291.23744,1034.0897 C 286.97127,1031.3966 285.6761,1031.0847 284.76008,1032.5301 C 282.97445,1035.3476 283.33828,1036.3481 286.59454,1037.5747 C 289.32924,1038.6049 289.08283,1038.8577 283.99058,1040.2463 C 277.61788,1041.9842 274.97414,1046.4171 278.69,1049.1342 C 279.87654,1050.0019 280.50574,1051.0533 280.08822,1051.4709 C 278.40186,1053.1572 282.47723,1057.6704 286.48027,1058.5496 L 290.75134,1059.4877 L 286.69235,1061.1944 C 281.50327,1063.3762 279.90562,1067.2013 283.16532,1069.6387 C 286.78546,1072.3457 306.88581,1071.341 309.92489,1068.3012 z "
       id="path3018"
       inkscape:export-filename="/home/rob/svn/goodnight/trunk/web/gfx/forest.png"
       inkscape:export-xdpi="34.74234"
       inkscape:export-ydpi="34.74234" />
    <path
       style="fill:black"
       d="M 193.76444,789.35444 C 194.7496,786.95479 196.83482,784.39512 198.39824,783.6663 C 201.3839,782.2743 202.03672,778.64308 201.35786,767.20383 L 201.01928,761.49837 L 213.88343,761.49837 C 224.42325,761.49837 226.74757,761.86218 226.74757,763.51206 C 226.74757,764.93051 228.18155,765.52576 231.59861,765.52576 L 236.44966,765.52576 L 235.54374,771.56683 L 234.63782,777.6079 L 248.81593,777.6079 C 260.52371,777.6079 262.99402,777.25699 262.99402,775.59421 C 262.99402,774.48668 262.38991,773.58052 261.65156,773.58052 C 260.91321,773.58052 260.3091,772.07025 260.3091,770.22437 C 260.3091,767.3903 260.93559,766.86822 264.33648,766.86822 C 267.0214,766.86822 268.36387,766.19699 268.36387,764.85453 C 268.36387,763.18665 270.89963,762.84083 283.13094,762.84083 L 297.89801,762.84083 L 297.89801,766.75639 C 297.89801,768.90983 297.32064,770.87318 296.61498,771.11939 C 295.80686,771.40117 295.83507,773.55448 296.69122,776.93667 C 297.43882,779.89009 298.64125,784.65166 299.36328,787.51795 C 300.08532,790.38411 300.41108,792.99425 300.08721,793.31819 C 299.76333,793.64199 298.803,790.99479 297.95314,787.43552 C 294.16085,771.553 295.08124,772.95037 288.11653,772.50011 C 282.02627,772.10637 281.77984,772.23242 281.55886,775.85626 C 281.12417,782.98406 280.8636,785.00379 279.81725,789.35444 C 278.814,793.52587 278.48475,793.71744 272.31716,793.71744 L 265.86636,793.71744 L 267.11512,789.3633 C 268.67273,783.93224 268.73157,784.32021 266.35017,784.32021 C 265.24264,784.32021 264.33648,784.7949 264.33648,785.37498 C 264.33648,785.95506 263.12827,786.42975 261.65156,786.42975 C 260.17485,786.42975 258.96664,785.95506 258.96664,785.37498 C 258.96664,784.7949 258.06048,784.32021 256.95295,784.32021 C 255.84542,784.32021 254.93926,784.77329 254.93926,785.32706 C 254.93926,785.88082 253.42899,786.3339 251.5831,786.3339 C 249.73722,786.3339 248.22695,785.88082 248.22695,785.32706 C 248.22695,784.77329 247.32079,784.32021 246.21326,784.32021 C 245.10573,784.32021 244.19957,784.77329 244.19957,785.32706 C 244.19957,785.88082 242.6893,786.3339 240.84342,786.3339 C 238.99753,786.3339 237.48726,785.88082 237.48726,785.32706 C 237.48726,784.77329 236.5811,784.32021 235.47357,784.32021 C 234.36604,784.32021 233.45988,784.90539 233.45988,785.62052 C 233.45988,786.33565 232.63079,786.60266 231.61746,786.21389 C 230.26815,785.6961 229.9471,786.40693 230.41794,788.86994 C 230.77155,790.71972 232.05371,792.49701 233.26721,792.8196 C 234.48071,793.14206 233.60399,793.47606 231.31896,793.56171 C 229.03392,793.64736 223.59695,792.52412 219.23681,791.06554 C 209.29008,787.73812 208.42628,787.7357 207.56414,791.03251 C 206.96851,793.31027 205.733,793.71744 199.41761,793.71744 L 191.9732,793.71744 L 193.76444,789.35444 z M 228.74367,788.01198 C 228.24747,785.61233 226.84945,780.77947 225.63697,777.27229 C 223.47071,771.00622 223.33308,770.8956 217.70648,770.8956 C 212.29459,770.8956 211.9805,771.10731 211.9805,774.75518 C 211.9805,776.87787 211.61122,780.46117 211.15987,782.71785 C 210.35133,786.76067 210.46504,786.86015 218.87902,789.47244 C 230.13217,792.9662 229.77891,793.01855 228.74367,788.01198 z M 220.03527,781.63529 C 220.03527,780.15858 220.63938,778.95037 221.37773,778.95037 C 222.11608,778.95037 222.72019,780.15858 222.72019,781.63529 C 222.72019,783.11199 222.11608,784.32021 221.37773,784.32021 C 220.63938,784.32021 220.03527,783.11199 220.03527,781.63529 z M 269.70633,780.96406 C 269.70633,779.26088 266.50402,778.95037 248.94032,778.95037 C 231.03318,778.95037 228.28068,779.22758 228.94702,780.96406 C 229.58603,782.62925 233.17964,782.97775 249.71304,782.97775 C 266.58987,782.97775 269.70633,782.66388 269.70633,780.96406 z M 233.45988,775.59421 C 233.45988,774.25645 232.1221,773.58052 229.47464,773.58052 C 226.48373,773.58052 225.68218,774.08287 226.2621,775.59421 C 226.68711,776.70174 228.48046,777.6079 230.24736,777.6079 C 232.20795,777.6079 233.45988,776.8231 233.45988,775.59421 z M 234.80234,769.1057 C 234.80234,766.73625 227.08549,766.73625 226.17625,769.1057 C 225.68522,770.3852 226.81701,770.8956 230.14587,770.8956 C 233.13129,770.8956 234.80234,770.25323 234.80234,769.1057 z M 296.55555,766.86822 C 296.55555,763.9199 293.21681,763.18705 291.9688,765.86137 C 291.34233,767.20383 291.02908,767.20383 290.4026,765.86137 C 289.39244,763.69679 286.26666,763.69679 285.2565,765.86137 C 284.63002,767.20383 284.31677,767.20383 283.6903,765.86137 C 282.44229,763.18705 279.10355,763.9199 279.10355,766.86822 C 279.10355,769.2778 279.99853,769.55314 287.82955,769.55314 C 295.66057,769.55314 296.55555,769.2778 296.55555,766.86822 z M 225.40511,765.52576 C 225.40511,762.57744 222.06637,761.84459 220.81837,764.51891 C 220.19189,765.86137 219.87864,765.86137 219.25217,764.51891 C 218.24122,762.35258 215.08728,762.35258 214.20826,764.51891 C 213.69586,765.78176 213.17496,765.69866 212.10326,764.18329 C 210.92391,762.51569 210.67562,762.68873 210.6586,765.19014 C 210.63976,767.95883 211.25347,768.21068 218.02158,768.21068 C 224.51014,768.21068 225.40511,767.88527 225.40511,765.52576 z M 287.15832,778.95037 C 287.15832,777.47366 287.76243,776.26544 288.50078,776.26544 C 289.23913,776.26544 289.84324,777.47366 289.84324,778.95037 C 289.84324,780.42707 289.23913,781.63529 288.50078,781.63529 C 287.76243,781.63529 287.15832,780.42707 287.15832,778.95037 z "
       id="path3020"
       inkscape:export-filename="/home/rob/svn/goodnight/trunk/web/gfx/fortress.png"
       inkscape:export-xdpi="34.74234"
       inkscape:export-ydpi="34.74234" />
    <path
       style="fill:black"
       d="M 211.52451,-70.883443 C 210.23239,-71.189793 209.1752,-72.604203 209.1752,-74.026813 C 209.1752,-76.234353 210.155,-76.613333 215.86193,-76.613333 C 222.0053,-76.613333 222.62251,-76.907603 223.4575,-80.234353 C 224.03124,-82.520423 223.79318,-84.046533 222.81184,-84.373693 C 219.43338,-85.499753 222.04602,-101.29877 226.49777,-106.66271 C 227.48812,-107.85602 229.49234,-108.83239 230.95157,-108.83239 C 233.69496,-108.83239 241.39427,-101.61009 241.39427,-99.036593 C 241.39427,-98.235143 240.63913,-98.516793 239.71619,-99.662173 C 236.84769,-103.22238 233.52143,-103.62593 231.90722,-100.60982 C 230.83372,-98.603913 229.59124,-98.068543 227.32808,-98.636533 C 223.69472,-99.548473 222.59075,-97.585793 222.61843,-90.263743 L 222.63705,-85.339323 L 225.54759,-91.024243 C 227.14838,-94.150973 228.73211,-96.435303 229.06697,-96.100363 C 229.40183,-95.765553 228.67039,-93.957123 227.44155,-92.081703 C 224.51172,-87.610103 223.58435,-76.613333 226.1371,-76.613333 C 227.14501,-76.613333 228.03973,-77.670523 228.12538,-78.962633 C 228.2737,-81.200113 228.31035,-81.200113 228.89506,-78.962633 C 229.34828,-77.228313 230.88887,-76.613333 234.78039,-76.613333 C 240.34423,-76.613333 241.36712,-77.877793 238.03811,-80.640713 C 235.17283,-83.018613 235.54682,-86.010553 238.70935,-86.010553 C 242.09745,-86.010553 242.29623,-90.296233 239.08223,-94.050023 C 236.29701,-97.302803 235.50081,-97.377313 232.76416,-94.640703 C 230.38064,-92.257163 229.84455,-81.983173 232.10371,-81.983173 C 233.01128,-81.983173 233.22648,-83.469013 232.67953,-85.959273 C 232.19921,-88.146143 232.31899,-90.851603 232.94569,-91.971483 C 233.69359,-93.307903 234.07236,-91.826233 234.04794,-87.659773 C 234.02021,-82.928803 233.49783,-81.311943 231.99704,-81.311943 C 227.57767,-81.311943 228.82404,-94.333683 233.48202,-96.826493 C 235.78836,-98.060753 236.84306,-97.791593 239.50724,-95.288713 C 241.82032,-93.115803 242.76104,-92.797373 242.82243,-94.166943 C 243.28417,-104.46926 245.48318,-108.83239 250.21378,-108.83239 C 252.33863,-108.83239 263.80928,-95.310183 265.53519,-90.770653 C 266.28641,-88.794823 266.90103,-84.801133 266.90103,-81.895783 L 266.90103,-76.613333 L 274.95579,-76.613333 C 282.11558,-76.613333 283.01056,-76.315033 283.01056,-73.928413 C 283.01056,-72.451703 282.25542,-71.264293 281.33248,-71.289663 C 280.40954,-71.315173 264.85377,-71.108833 246.76411,-70.831213 C 228.67445,-70.553733 212.81663,-70.577223 211.52451,-70.883443 z M 281.6681,-73.928413 C 281.6681,-74.774963 272.49462,-75.270873 256.83257,-75.270873 C 241.17052,-75.270873 231.99704,-74.774963 231.99704,-73.928413 C 231.99704,-73.081853 241.17052,-72.585943 256.83257,-72.585943 C 272.49462,-72.585943 281.6681,-73.081853 281.6681,-73.928413 z M 246.45257,-79.298253 C 247.92035,-81.648503 247.79327,-81.983173 245.43302,-81.983173 C 243.63171,-81.983173 242.73673,-81.091913 242.73673,-79.298253 C 242.73673,-77.821543 243.19551,-76.613333 243.75626,-76.613333 C 244.31701,-76.613333 245.53035,-77.821543 246.45257,-79.298253 z M 253.38205,-78.962633 C 253.24412,-82.397053 251.00915,-87.352083 250.88586,-84.496803 C 250.83396,-83.295163 249.88533,-81.559893 248.7778,-80.640713 C 245.80418,-78.172863 246.32401,-76.613333 250.12026,-76.613333 C 252.45757,-76.613333 253.44777,-77.326443 253.38205,-78.962633 z M 262.84379,-80.305103 L 262.81394,-83.996863 L 260.35096,-80.793753 C 257.48743,-77.069633 256.82956,-77.791743 255.59873,-86.010553 C 254.74967,-91.679903 251.55961,-97.965843 250.21422,-96.620433 C 249.88148,-96.287633 250.7814,-92.462293 252.21405,-88.119703 C 253.64671,-83.776973 254.81888,-79.411553 254.81888,-78.418673 C 254.81888,-77.307653 256.36796,-76.613333 258.84626,-76.613333 C 262.35203,-76.613333 262.86978,-77.091513 262.84379,-80.305103 z M 263.28954,-92.364023 C 260.06534,-98.845563 254.68654,-102.7148 250.397,-101.63828 C 246.76501,-100.72661 242.69627,-93.686883 242.79923,-88.492633 C 242.84857,-86.003843 243.56125,-86.683133 246.18112,-91.716013 C 248.00677,-95.223193 250.02354,-98.092703 250.66283,-98.092703 C 252.87791,-98.092703 256.21391,-91.371543 257.05896,-85.206293 C 257.727,-80.332353 258.18122,-79.500023 259.18955,-81.301743 C 260.84676,-84.263073 259.45686,-91.111913 256.481,-94.648493 C 254.16288,-97.403353 254.16687,-97.405233 257.09209,-94.932953 C 258.71154,-93.564313 260.41932,-90.701653 260.88715,-88.571703 C 261.35497,-86.441623 262.29538,-84.354233 262.97693,-83.932963 C 263.65847,-83.511833 264.32165,-81.541503 264.45065,-79.554663 C 264.57964,-77.567683 264.91782,-78.538013 265.20215,-81.710923 C 265.53997,-85.480553 264.87716,-89.172323 263.28954,-92.364023 z M 247.77096,-84.250993 C 246.47884,-84.588623 244.36446,-84.588623 243.07234,-84.250993 C 241.78022,-83.913363 242.83741,-83.637083 245.42165,-83.637083 C 248.00589,-83.637083 249.06308,-83.913363 247.77096,-84.250993 z M 250.77094,-88.359863 C 250.72975,-93.066133 248.6624,-94.339323 246.99696,-90.684063 C 244.93129,-86.150443 244.9645,-86.010553 248.10657,-86.010553 C 249.7765,-86.010553 250.78372,-86.898593 250.77094,-88.359863 z M 252.98444,-103.09968 C 256.10291,-102.50349 256.15017,-102.59223 253.98745,-104.98194 C 250.14898,-109.22345 246.22182,-107.7893 244.66256,-101.57666 L 243.69059,-97.704063 L 246.70119,-100.71466 C 248.72525,-102.73869 250.78422,-103.52027 252.98444,-103.09968 z M 231.66207,-102.0825 C 232.69572,-103.73775 234.20045,-104.4514 235.67675,-103.98664 C 237.70943,-103.34683 237.6754,-103.53893 235.43222,-105.36656 C 233.99899,-106.53437 231.80755,-107.48993 230.56237,-107.48993 C 227.55984,-107.48993 224.7875,-104.00973 225.76364,-101.46591 C 226.84986,-98.635333 229.69497,-98.932683 231.66207,-102.0825 z "
       id="path3024"
       inkscape:export-filename="/home/rob/svn/goodnight/trunk/web/gfx/fountain.png"
       inkscape:export-xdpi="34.74234"
       inkscape:export-ydpi="34.74234" />
    <path
       style="fill:black"
       d="M 180.68186,852.87571 C 181.40554,852.18677 183.19069,851.40807 184.64885,851.14529 C 186.10702,850.88249 187.98405,849.29551 188.82004,847.61868 C 189.65604,845.94185 192.84277,842.64635 195.90167,840.29537 C 198.96058,837.94438 201.48254,835.09293 201.50602,833.95882 C 201.59614,829.60643 205.25068,826.99917 212.67307,825.99193 C 216.74909,825.4388 220.97723,824.24493 222.06895,823.33888 C 223.16068,822.43282 228.25386,821.3394 233.38712,820.90905 C 241.67296,820.21439 243.00412,820.43724 245.24928,822.89494 C 250.30195,828.42589 251.25424,829.88311 249.81608,829.88311 C 249.03278,829.88311 247.70907,828.38445 246.87449,826.55276 C 246.03992,824.72106 244.30997,822.89007 243.03015,822.48387 C 237.24699,820.64837 229.55466,828.55768 229.75714,836.13131 C 229.92588,842.44301 235.27626,854.24349 237.12916,852.39059 C 237.65894,851.86082 237.45872,850.65764 236.68426,849.71685 C 235.90978,848.77606 234.84894,845.13682 234.32683,841.62964 C 233.41097,835.47757 233.49512,835.25295 236.71547,835.25295 C 241.95571,835.25295 251.36972,830.49667 256.3837,825.31585 L 260.9618,820.58545 L 265.49203,824.56306 C 267.98365,826.75073 270.906,828.54065 271.98613,828.54065 C 274.3398,828.54065 282.60458,836.30255 283.77897,839.61595 C 284.23694,840.90807 285.84474,841.96526 287.35184,841.96526 C 288.85895,841.96526 291.12654,843.17347 292.39094,844.65018 C 293.65533,846.12689 295.72815,847.3351 296.99718,847.3351 C 298.26622,847.3351 299.67788,847.93921 300.13421,848.67756 C 300.59054,849.41592 302.28749,850.03923 303.90521,850.06271 C 305.52293,850.08621 308.05473,851.07364 309.53144,852.25702 C 312.21636,854.40861 312.21636,854.40861 309.53144,853.36691 C 308.05473,852.79398 305.17782,852.03895 303.13832,851.68908 C 301.09881,851.33919 299.09981,850.51846 298.69609,849.86524 C 298.29238,849.21202 296.92376,848.67756 295.65471,848.67756 C 294.38569,848.67756 292.31287,847.46935 291.04848,845.99264 C 289.78408,844.51593 287.57615,843.30772 286.14198,843.30772 C 284.65488,843.30772 283.14177,842.07069 282.62071,840.42898 C 281.47551,836.82078 274.48811,829.88311 271.99925,829.88311 C 270.97382,829.88311 268.27616,828.31914 266.00446,826.40762 C 260.99822,822.19516 260.83654,823.35562 265.22461,832.00489 C 267.0674,835.63722 268.57767,839.83393 268.58077,841.33093 C 268.58385,842.82794 269.39216,845.24438 270.37701,846.70077 C 274.81745,853.26741 274.40405,854.04741 266.48332,854.04741 C 259.59439,854.04741 259.18867,853.87178 260.48438,851.45074 C 261.24871,850.02257 261.87407,847.60614 261.87407,846.08089 C 261.87407,843.52481 261.0859,843.30772 251.80562,843.30772 L 241.73716,843.30772 L 241.73716,848.58827 L 241.73716,853.86883 L 210.55162,853.99857 C 191.21196,854.07903 179.86587,853.65251 180.68186,852.87571 z M 263.21653,838.6091 C 263.21653,837.50157 262.31037,836.59541 261.20284,836.59541 C 260.09531,836.59541 259.18915,837.19952 259.18915,837.93787 C 259.18915,838.67623 258.28299,839.28033 257.17546,839.28033 C 256.06793,839.28033 255.16177,838.67623 255.16177,837.93787 C 255.16177,837.19952 254.25561,836.59541 253.14808,836.59541 C 252.04055,836.59541 251.13439,837.19952 251.13439,837.93787 C 251.13439,838.67623 250.22822,839.28033 249.12069,839.28033 C 248.01316,839.28033 247.107,838.67623 247.107,837.93787 C 247.107,835.95292 244.51735,836.30837 242.2166,838.6091 C 240.42666,840.39905 241.48145,840.6228 251.70972,840.6228 C 261.04302,840.6228 263.21653,840.24244 263.21653,838.6091 z M 245.76454,850.69125 C 245.76454,847.75062 246.34627,847.3351 250.46315,847.3351 C 254.58004,847.3351 255.16177,847.75062 255.16177,850.69125 C 255.16177,853.63189 254.58004,854.04741 250.46315,854.04741 C 246.34627,854.04741 245.76454,853.63189 245.76454,850.69125 z "
       id="path3034"
       inkscape:export-filename="/home/rob/svn/goodnight/trunk/web/gfx/gate.png"
       inkscape:export-xdpi="34.74234"
       inkscape:export-ydpi="34.74234" />
    <path
       style="fill:black"
       d="M 215.47494,663.27082 C 215.26053,656.3156 214.8195,654.88044 212.89661,654.88044 C 211.40708,654.88044 214.63936,650.79681 221.92858,643.46952 L 233.28022,632.05861 L 246.09288,632.05861 L 258.90554,632.05861 L 270.25718,643.46952 C 277.54639,650.79681 280.77868,654.88044 279.28915,654.88044 C 277.36626,654.88044 276.92524,656.3156 276.71082,663.27082 L 276.45215,671.66121 L 275.97553,663.27082 L 275.4989,654.88044 L 266.90103,654.88044 L 258.30315,654.88044 L 257.82653,663.27082 L 257.3499,671.66121 L 257.09123,663.27082 C 256.86499,655.9321 256.50407,654.88044 254.21171,654.88044 C 251.9426,654.88044 251.52687,656.00654 251.11422,663.27082 L 250.63759,671.66121 L 250.37893,663.27082 L 250.12026,654.88044 L 236.75972,654.88044 L 223.39915,654.88044 L 222.92254,663.27082 L 222.44591,671.66121 L 222.18725,663.27082 C 221.961,655.9321 221.60008,654.88044 219.30772,654.88044 C 217.0386,654.88044 216.62288,656.00654 216.21024,663.27082 L 215.73361,671.66121 L 215.47494,663.27082 z M 251.46272,651.52429 C 249.04283,648.60849 221.66355,648.60849 219.24366,651.52429 C 217.77244,653.297 219.7003,653.53798 235.35319,653.53798 C 251.00609,653.53798 252.93394,653.297 251.46272,651.52429 z M 268.91472,643.46952 L 258.91345,633.40107 L 246.8313,633.40107 L 234.74915,633.40107 L 244.75042,643.46952 L 254.75169,653.53798 L 266.83384,653.53798 L 278.91598,653.53798 L 268.91472,643.46952 z M 232.66827,643.46952 C 232.66827,640.88529 232.48472,638.77091 232.26039,638.77091 C 232.03605,638.77091 229.80316,640.88529 227.29843,643.46952 L 222.74436,648.16814 L 227.70631,648.16814 C 232.48215,648.16814 232.66827,647.99189 232.66827,643.46952 z M 237.77969,642.56702 C 237.18937,634.55736 234.01073,634.09196 234.01073,642.0152 C 234.01073,646.69045 234.51288,648.16814 236.10161,648.16814 C 237.72634,648.16814 238.10046,646.91941 237.77969,642.56702 z M 244.07919,644.14076 C 241.95703,641.92569 240.03168,640.11337 239.80065,640.11337 C 239.56961,640.11337 239.38058,641.92569 239.38058,644.14076 C 239.38058,647.77319 239.80016,648.16814 243.65912,648.16814 L 247.93766,648.16814 L 244.07919,644.14076 z M 229.98335,666.29136 C 229.98335,661.61761 230.01531,661.59275 236.02442,661.59275 C 242.03353,661.59275 242.0655,661.61761 242.0655,666.29136 C 242.0655,670.96511 242.03353,670.98998 236.02442,670.98998 C 230.01531,670.98998 229.98335,670.96511 229.98335,666.29136 z "
       id="path3022"
       inkscape:export-filename="/home/rob/svn/goodnight/trunk/web/gfx/hall.png"
       inkscape:export-xdpi="34.74234"
       inkscape:export-ydpi="34.74234" />
    <path
       style="fill:black"
       d="M 167.66168,537.32218 C 169.96665,535.29785 172.25731,532.33108 172.75199,530.72935 C 173.84596,527.18725 182.50165,517.73552 186.53999,515.6733 C 190.92728,513.4329 195.70469,513.8531 201.24887,516.96709 C 207.04464,520.22237 212.63552,519.72525 221.43442,515.17227 C 226.60425,512.49715 227.82435,512.38329 237.0613,513.71401 C 244.41373,514.77324 248.35738,516.13134 251.87776,518.81646 L 256.67502,522.47551 L 264.18496,518.80124 C 271.16331,515.38705 272.18824,515.2332 278.66481,516.62786 C 282.49827,517.45335 288.64104,518.50512 292.31542,518.9651 C 296.97827,519.54883 300.33757,520.97926 303.43743,523.70098 C 305.88017,525.84572 308.37684,527.60052 308.98559,527.60052 C 309.59435,527.60052 312.74489,529.70903 315.9868,532.2861 C 319.22871,534.86318 322.78734,536.9868 323.89487,537.00528 C 325.0024,537.02375 326.81472,537.65206 327.92226,538.40154 C 329.3983,539.4004 328.86065,539.53214 325.90856,538.89495 C 323.6935,538.41685 319.7668,536.37742 317.18257,534.3629 C 314.59833,532.34837 310.67021,529.76251 308.4534,528.61653 C 306.2366,527.47055 303.27346,525.26288 301.86864,523.71058 C 298.89703,520.42697 293.31063,520.03984 289.58309,522.85921 C 288.14985,523.94325 285.32401,524.84941 283.30344,524.87291 C 280.39156,524.90674 279.22255,525.89001 277.66649,529.61421 C 276.42532,532.58473 274.78935,534.31282 273.21835,534.31282 C 271.85163,534.31282 270.15951,534.85485 269.45808,535.51735 C 266.72516,538.09851 240.28965,541.02234 221.47846,540.82399 C 210.98649,540.71335 204.21447,540.40718 206.42953,540.1436 C 211.62664,539.52516 228.73051,534.20535 230.99299,532.50363 C 233.27262,530.78902 230.68615,528.99288 225.89522,528.96353 C 224.04934,528.95223 216.73546,526.04117 209.64215,522.49452 C 200.12136,517.73413 196.07546,516.34495 194.18657,517.18779 C 190.40977,518.87304 185.61017,526.55148 183.74131,533.89827 L 182.09912,540.3539 L 172.78496,540.67833 L 163.47079,541.00278 L 167.66168,537.32218 z M 246.03213,528.0681 C 251.86558,527.25842 255.42936,525.58716 255.42936,523.66121 C 255.42936,521.41636 246.80762,516.68381 240.55911,515.4988 C 234.14621,514.28262 233.3675,514.44769 227.95736,518.16996 C 221.89316,522.34225 219.44061,526.04443 222.22609,526.82153 C 230.47136,529.12181 235.03472,529.91868 237.30614,529.45486 C 238.78284,529.15333 242.70954,528.52929 246.03213,528.0681 z "
       id="path3040"
       inkscape:export-filename="/home/rob/svn/goodnight/trunk/web/gfx/hills.png"
       inkscape:export-xdpi="34.74234"
       inkscape:export-ydpi="34.74234" />
    <path
       style="fill:black"
       d="M 221.33409,244.56798 C 221.33409,240.38957 220.82303,239.19814 219.03064,239.19814 C 217.45636,239.19814 219.01391,236.88266 223.95088,231.8836 C 230.43517,225.31776 230.98013,224.33011 229.27486,222.23507 C 227.59825,220.17506 227.64117,220.00054 229.64036,220.74923 C 231.12394,221.30474 232.11246,220.81233 232.50518,219.32246 C 232.90991,217.78696 233.1554,218.0827 233.26051,220.23252 C 233.39123,222.9059 233.73962,223.14902 235.42993,221.74614 C 237.94224,219.66117 238.07565,221.47148 235.62002,224.32541 C 233.87486,226.3536 230.73131,234.3195 230.73131,236.71351 C 230.73131,237.34178 231.92057,237.85568 233.37411,237.85568 C 235.25154,237.85568 235.82268,237.17532 235.34627,235.50637 C 234.97744,234.21425 235.39075,234.5163 236.26478,236.1776 C 237.1388,237.8389 238.73724,239.19814 239.81685,239.19814 C 241.47009,239.19814 241.42514,238.61564 239.53203,235.50637 L 237.28427,231.8146 L 239.92843,234.83514 C 241.38274,236.49643 243.35669,237.85568 244.31501,237.85568 C 245.27332,237.85568 243.36454,234.98617 240.07327,231.47899 L 234.08913,225.1023 L 241.20025,231.8146 C 246.13082,236.46865 247.67425,238.66008 246.23364,238.96092 C 244.80427,239.25962 244.08888,241.1447 243.94108,245.002 C 243.75143,249.95178 243.66276,250.09758 243.18479,246.24606 C 242.677,242.15423 242.31485,241.88306 237.35856,241.88306 C 232.38155,241.88306 232.07378,242.11759 232.07378,245.91044 C 232.07378,249.71404 231.77545,249.93782 226.70393,249.93782 C 221.33409,249.93782 221.33409,249.93782 221.33409,244.56798 z M 236.35672,247.58852 C 236.60556,246.2964 237.69878,245.23921 238.78608,245.23921 C 239.87339,245.23921 240.9666,246.2964 241.21544,247.58852 C 241.53288,249.23692 240.80803,249.93782 238.78608,249.93782 C 236.76413,249.93782 236.03928,249.23692 236.35672,247.58852 z "
       id="path3042"
       inkscape:export-filename="/home/rob/svn/goodnight/trunk/web/gfx/hut.png"
       inkscape:export-xdpi="34.74234"
       inkscape:export-ydpi="34.74234" />
    <path
       style="fill:black"
       d="M 171.32449,600.68909 C 173.65732,598.20301 176.48224,595.84337 177.60208,595.44545 C 178.72193,595.04754 181.44042,591.02566 183.64316,586.50796 C 187.32942,578.94765 189.66184,576.28683 189.66184,579.64188 C 189.66184,580.38662 191.37198,583.35675 193.46217,586.24217 L 197.2625,591.48837 L 202.51239,588.54353 C 205.39983,586.92387 207.97498,584.49423 208.23494,583.14433 C 208.49491,581.79443 210.68912,577.40056 213.11098,573.38017 C 217.88698,565.4518 219.19598,565.92994 219.19598,575.60287 C 219.19598,581.97369 220.28874,585.0001 222.58909,585.0001 C 223.55896,585.0001 224.75054,586.81242 225.23705,589.02748 C 225.72356,591.24254 226.58075,593.05486 227.14192,593.05486 C 227.7031,593.05486 228.85035,594.56513 229.6914,596.41101 C 231.75265,600.93495 233.06075,600.66946 239.2615,594.46871 C 245.61111,588.11912 248.09359,583.56416 249.36061,575.93848 C 250.31914,570.16947 251.17843,569.23716 253.49585,571.4518 C 254.19729,572.12214 257.78235,574.33499 261.46264,576.36928 C 265.14293,578.40356 268.94843,580.86232 269.91928,581.83319 C 270.89015,582.80404 272.44312,584.0648 273.37032,584.63487 C 274.29753,585.20491 276.75583,587.93673 278.83324,590.70555 C 280.91063,593.47438 283.29571,595.73978 284.13342,595.73978 C 284.97112,595.73978 287.36706,593.92746 289.45771,591.7124 C 291.54838,589.49734 293.81182,587.68502 294.48759,587.68502 C 295.16336,587.68502 295.71625,586.16324 295.71625,584.30329 C 295.71625,581.30147 296.13099,581.01778 299.40802,581.77808 C 304.03264,582.85102 309.14086,585.97888 309.14086,587.73768 C 309.14086,588.47096 311.24614,590.07485 313.81923,591.30188 C 317.9168,593.25587 326.29204,603.2004 324.96105,604.53137 C 324.6913,604.80114 322.98966,602.62567 321.17965,599.697 C 319.36962,596.76834 316.73746,594.00676 315.33039,593.56016 C 313.92333,593.11358 310.7267,590.70282 308.22679,588.20291 C 301.47395,581.45006 299.21601,582.12355 302.64206,589.86872 C 304.84985,594.85979 305.09871,596.71806 303.90904,599.32911 C 302.00852,603.50031 302.00512,603.48108 304.77786,604.24457 C 306.06998,604.60038 304.40869,604.55355 301.0861,604.14053 C 297.76351,603.72751 293.60431,602.27248 291.84344,600.90714 C 290.08258,599.54181 287.82154,598.42471 286.81891,598.42471 C 285.81629,598.42471 280.86471,594.34698 275.81541,589.36309 C 270.76611,584.37921 264.87169,579.4171 262.71672,578.33617 C 260.56174,577.25525 257.13728,575.25075 255.10681,573.88175 C 250.71017,570.91741 250.70355,570.94104 254.01286,577.79052 C 258.08875,586.22664 258.61801,590.11212 256.75123,597.89379 L 255.0136,605.13701 L 236.76918,604.9996 C 224.66975,604.90846 220.03617,604.50485 223.01212,603.80125 C 229.95901,602.15883 230.93101,600.43049 227.51001,595.80336 C 225.89071,593.61312 224.56582,591.28076 224.56582,590.62034 C 224.56582,589.9599 223.05555,587.78993 221.20967,585.79819 C 218.6389,583.02429 217.84396,580.7008 217.81269,575.86932 C 217.78082,570.94468 217.47283,570.07515 216.40791,571.90326 C 215.65773,573.19107 214.70178,577.11777 214.28358,580.62926 C 213.86537,584.14075 211.62801,590.94049 209.31166,595.73978 L 205.10014,604.46578 L 186.09155,604.83752 L 167.08295,605.20925 L 171.32449,600.68909 z M 187.54914,599.76717 C 188.48144,599.76717 190.95523,598.29694 193.04646,596.50001 L 196.8487,593.23283 L 192.97229,587.43839 L 189.09589,581.64394 L 188.23613,586.74948 C 187.76328,589.55754 186.0783,593.6108 184.49173,595.75674 C 181.05973,600.39877 180.85686,601.68476 183.73057,600.58203 C 184.89848,600.13386 186.61684,599.76717 187.54914,599.76717 z "
       id="path3026"
       inkscape:export-filename="/home/rob/svn/goodnight/trunk/web/gfx/wastes.png"
       inkscape:export-xdpi="34.74234"
       inkscape:export-ydpi="34.74234" />
    <path
       style="fill:black"
       d="M 169.28076,97.126158 C 167.37467,92.159058 175.57088,85.478698 185.44249,83.953668 C 188.73733,83.444598 192.11867,81.668388 194.57414,79.156918 C 196.71879,76.963338 200.40534,74.780228 202.76646,74.305798 C 205.12758,73.831238 210.21737,72.174378 214.07712,70.623828 C 220.03826,68.229148 221.83695,68.032478 226.02396,69.317478 C 229.99485,70.536168 231.49417,70.451188 233.73641,68.880778 C 235.26723,67.808558 237.99904,66.931258 239.80709,66.931258 C 241.61513,66.931258 244.20856,65.922938 245.57026,64.690638 C 251.68093,59.160547 273.64458,61.478078 278.59614,68.175448 C 281.05504,71.501268 282.42329,72.001598 290.6721,72.591878 C 303.344,73.498448 313.77793,78.637918 319.17164,86.629858 C 321.37749,89.898348 323.18228,93.327668 323.18228,94.250478 C 323.18228,96.311688 320.46271,99.164818 318.55079,99.109508 C 317.77552,99.086958 318.19839,98.452918 319.49051,97.700328 C 324.22803,94.940898 321.42419,89.100658 313.75745,85.758468 C 310.75414,84.449298 310.72404,84.364458 313.44944,84.890838 C 317.4437,85.662348 317.28685,83.884798 313.11976,81.154368 C 311.08101,79.818618 308.32202,79.240688 306.07184,79.678198 C 303.30392,80.216248 303.02685,80.112618 304.96994,79.265518 C 307.99725,77.946018 306.99174,77.144968 299.85495,75.191018 C 294.09527,73.614028 282.50963,75.864258 276.66236,79.695508 C 272.3884,82.495888 272.61062,79.719808 276.98492,75.665848 C 280.41244,72.489318 280.42582,72.402328 277.99177,69.115848 C 275.37845,65.587318 267.47165,62.903838 259.68817,62.903838 C 254.13487,62.903838 247.28547,68.491068 248.60938,71.941058 C 249.34654,73.862118 249.09708,73.833518 246.77387,71.731098 C 243.21494,68.510258 237.59525,69.845738 236.5099,74.170078 L 235.71413,77.340698 L 232.5231,74.149668 C 228.81209,70.438568 224.79683,70.134908 217.84522,73.039588 C 214.14807,74.584358 213.08303,75.689068 213.71166,77.327278 C 214.47784,79.323918 214.31919,79.317478 212.04569,77.260018 C 208.93667,74.446358 204.57709,74.329158 202.36079,76.999718 C 201.44162,78.107248 201.22234,79.013408 201.87349,79.013408 C 202.52464,79.013408 203.87788,80.372648 204.88067,82.033948 C 206.31339,84.407418 206.32505,84.694968 204.93511,83.376408 C 202.44733,81.016228 197.59029,81.290758 194.93979,83.941178 C 192.84418,86.036898 192.90401,86.350758 195.85074,88.720608 L 199.00464,91.257188 L 194.70831,89.162678 C 189.27575,86.514138 186.98045,86.528508 182.84788,89.236248 C 178.9866,91.766248 178.53524,95.747318 181.88826,97.700328 C 183.7009,98.756038 182.6179,99.077968 177.14752,99.109508 C 172.03987,99.138908 169.8403,98.584338 169.28076,97.126158 z M 210.94265,97.245098 C 209.69682,93.998498 214.45729,88.514008 219.94949,86.868548 C 224.35971,85.547168 225.98804,85.681138 230.55469,87.740348 C 233.52194,89.078378 235.69321,90.429698 235.37975,90.743158 C 235.06628,91.056628 233.46077,90.591058 231.81194,89.708658 C 229.51107,88.477218 227.60067,88.467828 223.59503,89.667848 C 219.40962,90.921838 218.21916,92.015678 217.58412,95.190868 C 216.73449,99.439088 212.30972,100.80759 210.94265,97.245098 z M 258.74415,93.908818 C 258.74415,93.206978 260.33589,91.380828 262.28135,89.850428 C 266.24162,86.735378 273.16778,86.201618 276.61161,88.746248 C 278.54216,90.172618 277.88726,90.444198 272.24413,90.556688 C 268.50494,90.631198 264.10719,91.670798 262.17485,92.936878 C 260.28797,94.173278 258.74415,94.610658 258.74415,93.908818 z M 296.28947,92.519368 C 297.90659,89.497758 303.63731,88.798738 307.07275,91.204028 C 308.65921,92.314778 308.45983,92.438148 306.133,91.785448 C 304.46719,91.318268 301.35486,91.900768 298.99426,93.121468 C 294.89307,95.242288 294.83871,95.230198 296.28947,92.519368 z M 234.57985,83.900908 C 234.57985,78.972728 243.17029,77.291428 247.54852,81.362718 C 248.93807,82.654828 249.48827,83.258938 248.77121,82.705178 C 246.73914,81.135838 242.31827,81.529718 238.27162,83.640598 C 235.47279,85.100658 234.57985,85.163628 234.57985,83.900908 z "
       id="path3036"
       inkscape:export-filename="/home/rob/svn/goodnight/trunk/web/gfx/mist.png"
       inkscape:export-xdpi="34.74234"
       inkscape:export-ydpi="34.74234" />
    <path
       style="fill:black"
       d="M 166.9212,979.36356 C 168.87161,976.22556 171.4733,971.91826 172.70275,969.79166 C 174.74838,966.25346 187.26286,952.96488 191.9997,949.30104 C 193.09139,948.45663 195.88915,946.78097 198.21695,945.57719 C 200.60386,944.34293 203.26486,941.43664 204.31968,938.91214 C 205.34838,936.4502 207.39446,933.293 208.86652,931.8963 C 210.33858,930.49961 211.95234,927.44403 212.45265,925.106 C 212.95296,922.7681 214.23153,920.52163 215.29395,920.11392 C 216.35636,919.70622 217.22561,918.28845 217.22561,916.9633 C 217.22561,913.90289 226.11706,900.6038 228.86933,899.54769 C 231.88034,898.39223 236.18171,893.92895 240.62798,887.3462 C 242.7694,884.17584 244.99621,881.28861 245.57646,880.9299 C 246.15671,880.57133 249.22778,883.16376 252.40105,886.69081 C 255.57435,890.21799 260.37218,895.21973 263.06293,897.80571 C 265.75369,900.39183 268.36695,903.88303 268.87021,905.56393 C 269.37346,907.24496 271.21923,909.5599 272.97189,910.70824 C 274.72454,911.85672 277.35763,914.82852 278.82317,917.31248 C 282.66436,923.82274 291.00733,928.68567 298.33557,928.68567 L 304.32104,928.68567 L 305.01647,934.39113 C 305.39894,937.52913 306.07134,943.41918 306.51066,947.48013 C 307.33897,955.13685 309.64509,964.61306 311.24782,966.94576 C 311.75508,967.68416 312.59638,970.10056 313.11737,972.31566 C 314.65369,978.84756 317.60917,982.37466 321.63288,982.47846 C 323.64633,982.53026 326.50193,983.10786 327.97864,983.76156 C 329.77536,984.55716 328.66513,984.68896 324.62249,984.16006 C 317.31373,983.20366 314.45828,980.92926 312.49734,974.50266 C 311.67975,971.82306 310.49857,968.42256 309.87253,966.94576 C 307.29934,960.87616 305.91553,955.06033 305.15785,947.13109 C 303.41474,928.88932 304.08056,930.02813 295.15884,930.02813 C 287.54677,930.02813 287.24927,930.16292 285.82245,934.25581 C 285.01186,936.58109 284.30619,941.26292 284.25429,944.65988 C 284.20241,948.05698 283.69285,952.03201 283.12194,953.49328 C 282.28093,955.64605 281.64685,954.75425 279.78099,948.79466 C 276.84339,939.41194 273.97464,933.98906 270.4018,931.06478 C 267.66667,928.82623 267.96327,928.74434 278.9119,928.71548 L 290.25594,928.68567 L 284.67018,925.06385 C 281.59801,923.07177 278.39546,919.77858 277.55339,917.74569 C 276.71133,915.7128 274.52274,913.06694 272.68985,911.86598 C 270.85696,910.66501 268.46597,907.54916 267.37658,904.94183 C 266.28716,902.33451 264.22326,899.89458 262.7901,899.51977 C 261.35694,899.14509 260.18436,898.38982 260.18436,897.84156 C 260.18436,896.22658 249.18027,884.20135 248.40857,884.97313 C 247.48932,885.89231 253.61551,898.04091 255.91796,899.86478 C 258.54112,901.94251 256.5563,907.97405 251.98306,911.82221 C 247.58209,915.52539 247.24115,916.90262 250.13153,919.30147 C 251.24765,920.22777 253.39155,923.76784 254.89571,927.16829 C 256.39989,930.56861 258.94905,934.75427 260.56054,936.46966 L 263.49049,939.58847 L 259.48812,937.53947 C 255.64791,935.57357 252.31944,931.40026 249.51209,925.03136 C 247.98601,921.56929 241.90972,919.57412 239.68066,921.80314 C 238.84868,922.6352 237.09211,923.31583 235.77714,923.31583 C 234.38267,923.31583 233.05409,924.63936 232.5892,926.49169 C 231.75784,929.80408 234.00054,940.23594 235.70818,940.99953 C 236.2489,941.24131 237.59744,944.15754 238.70498,947.48013 C 240.23831,952.08007 241.47614,953.62833 243.89405,953.97052 C 245.6405,954.21754 247.72466,953.76445 248.52554,952.96368 C 249.3264,952.16276 252.60678,951.50751 255.81524,951.50751 C 260.21901,951.50751 262.45651,952.31513 264.944,954.80258 C 266.75631,956.6149 268.23912,958.72928 268.23912,959.50119 C 268.23912,960.27311 269.3537,960.90476 270.71598,960.90476 C 273.64117,960.90476 277.63635,964.93966 277.63635,967.89396 C 277.63635,969.03746 278.5425,970.72526 279.65004,971.64446 C 280.75757,972.56356 281.66373,974.34456 281.66373,975.60216 C 281.66373,978.88886 287.03369,983.41536 291.73219,984.08916 L 295.75957,984.66666 L 291.80565,984.86796 C 287.36875,985.09356 280.32127,979.39716 280.32127,975.58506 C 280.32127,974.33686 279.45139,972.59366 278.38817,971.71126 C 277.32495,970.82886 276.26778,968.85326 276.03886,967.32106 C 275.41267,963.12956 271.82638,961.40506 267.67215,963.29796 C 264.92245,964.55076 264.21174,965.82986 264.21174,969.52586 C 264.21174,974.58606 260.47719,978.37296 255.52265,978.33696 C 253.11742,978.31936 253.19118,978.12076 256.15697,976.62806 C 258.66461,975.36586 259.61746,973.69076 259.9258,970.00216 C 260.17896,966.97386 261.56282,963.88716 263.50592,962.01706 C 265.917,959.69639 266.36816,958.39823 265.39531,956.5804 C 264.00205,953.9771 258.19208,953.32815 256.77702,955.61772 C 256.29255,956.40159 254.44457,957.5949 252.67042,958.26935 C 250.46812,959.10664 249.44467,960.54603 249.44467,962.80596 C 249.44467,964.62656 248.84055,966.48946 248.10221,966.94576 C 247.36386,967.40206 246.75975,968.83946 246.75975,970.13976 C 246.75975,971.44006 244.67144,974.16906 242.11909,976.20396 C 239.56675,978.23896 237.1096,981.06606 236.65878,982.48656 C 235.87663,984.95086 234.1812,985.06906 199.60705,985.06906 L 163.375,985.06906 L 166.9212,979.36356 z "
       id="path3044"
       inkscape:export-filename="/home/rob/svn/goodnight/trunk/web/gfx/mountain.png"
       inkscape:export-xdpi="34.74234"
       inkscape:export-ydpi="34.74234" />
    <path
       style="fill:black"
       d="M 166.99368,190.23689 C 166.92648,188.74723 167.87015,187.88759 169.57261,187.88759 C 171.95922,187.88759 172.25754,186.99261 172.25754,179.83282 C 172.25754,175.35795 171.66089,171.77805 170.91508,171.77805 C 170.17672,171.77805 169.57261,170.56984 169.57261,169.09313 C 169.57261,166.59662 170.46759,166.40821 182.32598,166.40821 C 194.9196,166.40821 195.07936,166.36755 195.07936,163.16186 C 195.07936,158.52755 193.74404,155.66852 191.57958,155.66852 C 190.34884,155.66852 189.70952,154.11244 189.70952,151.11681 L 189.70952,146.56511 L 215.79822,140.09851 L 241.88692,133.6319 L 241.13717,129.88315 C 240.43954,126.39495 240.69068,126.13438 244.75042,126.13438 C 248.81339,126.13438 249.06171,126.39298 248.36133,129.8948 L 247.60924,133.65524 L 274.37151,140.25166 L 301.13378,146.84808 L 301.13378,151.2583 C 301.13378,154.13299 300.48266,155.66852 299.26372,155.66852 C 297.09926,155.66852 295.76394,158.52755 295.76394,163.16186 C 295.76394,166.37893 295.88501,166.40821 309.18855,166.40821 C 321.71818,166.40821 322.61316,166.5872 322.61316,169.09313 C 322.61316,170.56984 322.00905,171.77805 321.2707,171.77805 C 320.52488,171.77805 319.92824,175.35795 319.92824,179.83282 C 319.92824,186.99261 320.22656,187.88759 322.61316,187.88759 C 324.31563,187.88759 325.2593,188.74723 325.19209,190.23689 C 325.12878,191.64036 324.8135,191.91059 324.40899,190.90812 C 323.87825,189.59281 306.94797,189.23005 246.09288,189.23005 C 185.2378,189.23005 168.30752,189.59281 167.77678,190.90812 C 167.37227,191.91059 167.05699,191.64036 166.99368,190.23689 z M 177.62737,185.20266 C 177.62737,182.91551 178.52235,182.51774 183.66845,182.51774 C 188.81455,182.51774 189.70952,182.11998 189.70952,179.83282 C 189.70952,178.35611 190.55105,177.1479 191.57958,177.1479 C 192.60812,177.1479 193.79737,176.24174 194.22238,175.13421 C 194.8694,173.44808 193.25494,173.12052 184.29755,173.12052 L 173.6,173.12052 L 173.6,180.50405 C 173.6,186.17222 174.06782,187.88759 175.61368,187.88759 C 176.73239,187.88759 177.62737,186.69429 177.62737,185.20266 z M 313.21593,185.87389 C 313.21593,184.1108 304.86284,183.8602 246.09288,183.8602 C 187.32292,183.8602 178.96983,184.1108 178.96983,185.87389 C 178.96983,187.63699 187.32292,187.88759 246.09288,187.88759 C 304.86284,187.88759 313.21593,187.63699 313.21593,185.87389 z M 318.58577,180.50405 L 318.58577,173.12052 L 307.21698,173.12052 C 297.66294,173.12052 295.97155,173.44195 296.62092,175.13421 C 297.04593,176.24174 298.23518,177.1479 299.26372,177.1479 C 300.29225,177.1479 301.13378,178.35611 301.13378,179.83282 C 301.13378,182.15975 302.02876,182.51774 307.84609,182.51774 C 313.66341,182.51774 314.55839,182.87574 314.55839,185.20266 C 314.55839,186.69429 315.45337,187.88759 316.57208,187.88759 C 318.11795,187.88759 318.58577,186.17222 318.58577,180.50405 z M 299.79132,180.50405 C 299.79132,178.74725 292.85527,178.49036 245.42165,178.49036 C 197.98803,178.49036 191.05198,178.74725 191.05198,180.50405 C 191.05198,182.26085 197.98803,182.51774 245.42165,182.51774 C 292.85527,182.51774 299.79132,182.26085 299.79132,180.50405 z M 202.81417,176.22552 C 201.53065,175.88952 199.11422,175.87733 197.44432,176.19843 C 195.77442,176.51953 196.82456,176.79446 199.77798,176.80936 C 202.73139,176.82426 204.09768,176.56152 202.81417,176.22552 z M 225.636,176.22552 C 224.35249,175.88952 221.93606,175.87733 220.26616,176.19843 C 218.59626,176.51953 219.6464,176.79446 222.59981,176.80936 C 225.55323,176.82426 226.91952,176.56152 225.636,176.22552 z M 248.45784,176.22552 C 247.17433,175.88952 244.7579,175.87733 243.088,176.19843 C 241.4181,176.51953 242.46824,176.79446 245.42165,176.80936 C 248.37506,176.82426 249.74135,176.56152 248.45784,176.22552 z M 271.27968,176.22552 C 269.99616,175.88952 267.57973,175.87733 265.90983,176.19843 C 264.23993,176.51953 265.29007,176.79446 268.24349,176.80936 C 271.1969,176.82426 272.56319,176.56152 271.27968,176.22552 z M 294.10151,176.22552 C 292.818,175.88952 290.40157,175.87733 288.73167,176.19843 C 287.06177,176.51953 288.11191,176.79446 291.06532,176.80936 C 294.01874,176.82426 295.38503,176.56152 294.10151,176.22552 z M 203.13413,166.40821 C 203.13413,158.71144 202.98497,158.35344 199.77798,158.35344 C 196.57098,158.35344 196.42182,158.71144 196.42182,166.40821 C 196.42182,174.10498 196.57098,174.46298 199.77798,174.46298 C 202.98497,174.46298 203.13413,174.10498 203.13413,166.40821 z M 225.95597,166.40821 C 225.95597,158.71144 225.8068,158.35344 222.59981,158.35344 C 219.39282,158.35344 219.24366,158.71144 219.24366,166.40821 C 219.24366,174.10498 219.39282,174.46298 222.59981,174.46298 C 225.8068,174.46298 225.95597,174.10498 225.95597,166.40821 z M 248.7778,166.40821 C 248.7778,158.71144 248.62864,158.35344 245.42165,158.35344 C 242.21466,158.35344 242.0655,158.71144 242.0655,166.40821 C 242.0655,174.10498 242.21466,174.46298 245.42165,174.46298 C 248.62864,174.46298 248.7778,174.10498 248.7778,166.40821 z M 271.59964,166.40821 C 271.59964,158.71144 271.45048,158.35344 268.24349,158.35344 C 265.0365,158.35344 264.88733,158.71144 264.88733,166.40821 C 264.88733,174.10498 265.0365,174.46298 268.24349,174.46298 C 271.45048,174.46298 271.59964,174.10498 271.59964,166.40821 z M 294.42148,166.40821 C 294.42148,158.71144 294.27232,158.35344 291.06532,158.35344 C 287.85833,158.35344 287.70917,158.71144 287.70917,166.40821 C 287.70917,174.10498 287.85833,174.46298 291.06532,174.46298 C 294.27232,174.46298 294.42148,174.10498 294.42148,166.40821 z M 195.07936,169.09313 C 195.07936,168.2976 190.15701,167.75067 182.99721,167.75067 C 175.83743,167.75067 170.91508,168.2976 170.91508,169.09313 C 170.91508,169.88866 175.83743,170.43559 182.99721,170.43559 C 190.15701,170.43559 195.07936,169.88866 195.07936,169.09313 z M 321.2707,169.09313 C 321.2707,168.29237 316.1246,167.75067 308.51732,167.75067 C 300.91003,167.75067 295.76394,168.29237 295.76394,169.09313 C 295.76394,169.8939 300.91003,170.43559 308.51732,170.43559 C 316.1246,170.43559 321.2707,169.8939 321.2707,169.09313 z M 202.81417,156.08861 C 201.53065,155.7526 199.11422,155.74041 197.44432,156.06151 C 195.77442,156.38262 196.82456,156.65754 199.77798,156.67244 C 202.73139,156.68734 204.09768,156.42461 202.81417,156.08861 z M 225.636,156.08861 C 224.35249,155.7526 221.93606,155.74041 220.26616,156.06151 C 218.59626,156.38262 219.6464,156.65754 222.59981,156.67244 C 225.55323,156.68734 226.91952,156.42461 225.636,156.08861 z M 248.45784,156.08861 C 247.17433,155.7526 244.7579,155.74041 243.088,156.06151 C 241.4181,156.38262 242.46824,156.65754 245.42165,156.67244 C 248.37506,156.68734 249.74135,156.42461 248.45784,156.08861 z M 271.27968,156.08861 C 269.99616,155.7526 267.57973,155.74041 265.90983,156.06151 C 264.23993,156.38262 265.29007,156.65754 268.24349,156.67244 C 271.1969,156.68734 272.56319,156.42461 271.27968,156.08861 z M 294.10151,156.08861 C 292.818,155.7526 290.40157,155.74041 288.73167,156.06151 C 287.06177,156.38262 288.11191,156.65754 291.06532,156.67244 C 294.01874,156.68734 295.38503,156.42461 294.10151,156.08861 z M 299.79132,150.96991 L 299.79132,147.61376 L 245.42165,147.61376 L 191.05198,147.61376 L 191.05198,150.96991 L 191.05198,154.32606 L 245.42165,154.32606 L 299.79132,154.32606 L 299.79132,150.96991 z M 226.96281,141.6904 L 244.75042,137.17173 L 262.53803,141.6904 C 272.32121,144.17567 282.44001,146.16817 285.02425,146.11816 C 287.87372,146.06303 280.87339,143.76079 267.23664,140.26825 L 244.75042,134.50927 L 222.2642,140.26825 C 208.62745,143.76079 201.62712,146.06303 204.47659,146.11816 C 207.06083,146.16817 217.17963,144.17567 226.96281,141.6904 z M 251.46272,144.42108 L 257.5038,142.6116 L 252.86121,141.58846 C 249.78045,140.90951 248.04924,141.07347 247.71511,142.07584 C 247.43817,142.90663 246.10406,143.58637 244.75042,143.58637 C 243.39678,143.58637 242.06266,142.90663 241.78573,142.07584 C 241.45018,141.06919 239.73355,140.91239 236.63963,141.60579 L 231.99704,142.64628 L 238.03811,144.28345 C 241.36071,145.1839 244.38124,145.99036 244.75042,146.07558 C 245.1196,146.16081 248.14013,145.41628 251.46272,144.42108 z M 247.43534,128.8193 C 247.43534,128.08095 246.22713,127.47684 244.75042,127.47684 C 243.27371,127.47684 242.0655,128.08095 242.0655,128.8193 C 242.0655,129.55766 243.27371,130.16176 244.75042,130.16176 C 246.22713,130.16176 247.43534,129.55766 247.43534,128.8193 z "
       id="path3014"
       inkscape:export-filename="/home/rob/svn/goodnight/trunk/web/gfx/palace.png"
       inkscape:export-xdpi="34.74234"
       inkscape:export-ydpi="34.74234" />
    <path
       style="fill:black"
       d="M 198.83319,373.0616 C 199.94072,372.69672 202.0551,371.88238 203.53181,371.2521 C 205.00851,370.62168 208.02905,369.56167 210.24411,368.89648 C 212.79975,368.12913 215.30186,365.86064 217.09105,362.68881 C 222.12936,353.75729 224.00365,353.12888 245.60232,353.12888 C 264.54765,353.12888 264.89187,353.18177 267.44457,356.48503 C 268.87105,358.33092 271.2341,361.2517 272.69581,362.97569 C 274.15752,364.69968 275.35347,366.66303 275.35347,367.33869 C 275.35347,368.01435 276.76305,368.56718 278.48587,368.56718 C 280.20871,368.56718 282.07047,369.02026 282.62314,369.57402 C 283.1758,370.12779 285.84394,371.31224 288.55234,372.20619 L 293.47669,373.8315 L 288.77808,373.07154 C 286.19384,372.65363 283.50556,371.77123 282.80413,371.1106 C 282.10269,370.45011 280.16059,369.90964 278.48836,369.90964 C 276.81613,369.90964 274.81169,368.72075 274.03406,367.26781 C 273.25644,365.81473 271.25743,363.15545 269.59185,361.3583 C 267.07157,358.63888 266.18637,358.36649 264.31546,359.73446 C 262.30059,361.20781 262.27013,361.76909 264.02177,365.14538 C 265.75852,368.49294 265.75081,368.72545 263.9525,367.23291 C 262.8395,366.30916 261.92886,364.72129 261.92886,363.70411 C 261.92886,362.68706 260.79616,361.85487 259.41174,361.85487 C 257.72655,361.85487 256.6452,363.10202 256.13994,365.62826 C 254.7584,372.53603 245.4959,374.53871 236.39736,369.89702 L 231.10974,367.19948 L 230.26423,370.56825 L 229.41872,373.93702 L 213.11911,373.83097 C 204.15433,373.7727 197.72566,373.42648 198.83319,373.0616 z M 248.2193,364.72559 C 251.20815,360.95636 249.57986,357.55551 243.80564,355.50692 C 234.06673,352.05182 217.98702,356.03893 222.69062,360.74251 C 223.56608,361.61793 226.86277,363.68075 230.01661,365.32661 C 236.53969,368.73069 245.27202,368.44246 248.2193,364.72559 z M 236.79487,362.86172 C 235.27235,360.89394 233.58343,356.48503 234.35221,356.48503 C 234.64414,356.48503 235.7871,358.29735 236.89211,360.51241 C 239.00704,364.75177 238.96898,365.67149 236.79487,362.86172 z M 224.95598,359.08055 C 224.4693,358.29306 224.35901,357.36085 224.71091,357.00899 C 225.0628,356.65714 225.70844,357.30138 226.14567,358.44073 C 227.05341,360.80628 226.27971,361.22244 224.95598,359.08055 z M 239.9441,358.44677 C 238.64865,355.07088 239.03081,354.1999 240.61336,356.92133 C 241.39694,358.26876 241.75525,359.65405 241.40961,359.99973 C 241.06397,360.34541 240.40448,359.64653 239.9441,358.44677 z "
       id="path5239"
       inkscape:export-filename="/home/rob/svn/goodnight/trunk/web/gfx/pit.png"
       inkscape:export-xdpi="34.74234"
       inkscape:export-ydpi="34.74234" />
    <path
       style="fill:black"
       d="M 175.35308,319.90284 C 176.56942,307.67542 178.10509,303.91234 182.64612,302.03138 C 186.48026,300.44322 187.06932,300.54739 189.21107,303.19234 C 191.43116,305.93403 194.35549,324.21242 192.81975,325.74817 C 192.46111,326.10682 191.74537,321.89387 191.22925,316.38607 C 190.71313,310.87826 189.57222,305.38907 188.69387,304.18787 C 187.24023,302.19988 186.8278,302.25455 184.09904,304.79677 C 181.55151,307.17016 181.10122,308.9933 181.10122,316.93459 C 181.10122,325.87877 180.96437,326.27953 177.90997,326.27953 C 174.90882,326.27953 174.75651,325.89969 175.35308,319.90284 z M 197.24278,319.23161 C 197.26039,315.35525 197.91898,309.76726 198.7063,306.81384 C 199.49363,303.86043 200.64499,297.81935 201.2649,293.38923 C 203.38959,278.20527 203.91281,277.33529 211.20311,276.86472 C 219.80929,276.30921 222.1802,278.59434 223.19354,288.42139 C 225.66649,312.40296 225.43227,311.51072 229.26043,311.53267 C 234.48862,311.56264 243.07923,314.88005 245.10588,317.65166 C 246.08264,318.98747 246.81997,321.62622 246.74439,323.51557 C 246.62487,326.50329 246.47027,326.37355 245.55755,322.51963 C 244.98036,320.08251 244.12477,317.70515 243.65621,317.2366 C 242.56915,316.14954 233.29245,312.90179 231.19836,312.87513 C 229.04647,312.84773 227.4911,318.16549 229.16221,319.8366 C 231.43397,322.10837 225.95799,326.27953 220.70382,326.27953 C 218.11958,326.27953 216.0052,325.76556 216.0052,325.13739 C 216.0052,322.0274 219.43395,314.66582 221.60508,313.11441 C 224.18162,311.27328 224.75528,305.92743 223.20702,298.1861 C 222.05244,292.4132 217.16227,292.83019 215.94808,298.80507 C 215.49281,301.04543 214.38056,304.06597 213.47641,305.51737 C 212.101,307.72529 211.97535,307.05998 212.70711,301.444 C 213.78979,293.13481 214.04729,292.718 218.09813,292.718 C 221.06433,292.718 221.37505,292.17065 221.37505,286.94542 C 221.37505,278.25019 216.52849,275.23024 210.6507,280.26297 C 208.37824,282.20872 207.95044,284.21665 207.95044,292.93712 C 207.95044,298.99998 207.34019,303.67639 206.47961,304.20825 C 205.66635,304.71088 205.26135,307.2806 205.5737,309.95621 C 205.88442,312.61762 205.34179,316.32194 204.36788,318.18803 C 203.39398,320.05412 202.59341,322.6381 202.58886,323.93022 C 202.58375,325.3818 201.55462,326.27953 199.89567,326.27953 C 197.54763,326.27953 197.21476,325.39523 197.24278,319.23161 z "
       id="path3038"
       inkscape:export-filename="/home/rob/svn/goodnight/trunk/web/gfx/stones.png"
       inkscape:export-xdpi="34.74234"
       inkscape:export-ydpi="34.74234" />
    <path
       style="fill:black"
       d="M 203.79737,443.0739 C 227.04672,419.81576 246.0761,400.78638 246.08489,400.78638 C 246.09369,400.78638 265.12667,419.96679 288.3804,443.40951 L 330.65994,486.03265 L 288.87373,444.59011 L 247.08754,403.14759 L 233.38547,444.2545 L 219.6834,485.36142 L 190.60462,485.36142 L 161.52585,485.36142 L 203.79737,443.0739 z M 261.12867,474.20617 C 259.13059,468.07079 257.49581,462.33177 257.49581,461.45279 C 257.49581,460.29865 262.35769,459.85466 274.99604,459.85466 L 292.49627,459.85466 L 291.59435,472.27242 C 290.53321,486.88209 289.71488,489.17148 289.71488,477.5304 C 289.71488,470.14687 289.42461,469.25189 287.02995,469.25189 C 284.64335,469.25189 284.34503,470.14687 284.34503,477.30665 L 284.34503,485.36142 L 278.97519,485.36142 L 273.60534,485.36142 L 273.60534,477.30665 C 273.60534,470.14687 273.30702,469.25189 270.92042,469.25189 C 268.53382,469.25189 268.2355,470.14687 268.2355,477.30665 C 268.2355,488.93443 265.54252,487.75956 261.12867,474.20617 z M 291.05734,464.55327 C 291.05734,461.22198 290.96783,461.19712 278.97519,461.19712 C 266.98254,461.19712 266.89304,461.22198 266.89304,464.55327 C 266.89304,467.88456 266.98254,467.90943 278.97519,467.90943 C 290.96783,467.90943 291.05734,467.88456 291.05734,464.55327 z "
       id="path3032"
       inkscape:export-filename="/home/rob/svn/goodnight/trunk/web/gfx/temple.png"
       inkscape:export-xdpi="34.74234"
       inkscape:export-ydpi="34.74234" />
    <path
       style="fill:black"
       d="M 273.65849,324.93353 C 274.11602,324.19323 277.17221,322.36581 280.45002,320.87259 L 286.40968,318.15765 L 286.40968,300.06799 C 286.40968,288.90318 285.89578,281.97831 285.06722,281.97831 C 284.32887,281.97831 283.72476,280.16599 283.72476,277.95093 C 283.72476,275.73587 284.32887,273.92355 285.06722,273.92355 C 285.84751,273.92355 286.40968,269.53647 286.40968,263.44721 C 286.40968,253.23667 286.29047,252.85533 281.71107,248.41679 C 276.69769,243.55763 275.09258,236.33464 279.02615,236.33464 C 280.48048,236.33464 281.03984,234.84302 281.03984,230.9648 L 281.03984,225.59495 L 295.13568,225.59495 L 309.23152,225.59495 L 309.23152,230.9648 C 309.23152,234.84302 309.79088,236.33464 311.24521,236.33464 C 315.17878,236.33464 313.57367,243.55763 308.56029,248.41679 C 303.98089,252.85533 303.86168,253.23667 303.86168,263.44721 C 303.86168,269.53647 304.42384,273.92355 305.20414,273.92355 C 305.94249,273.92355 306.5466,275.73587 306.5466,277.95093 C 306.5466,280.16599 305.94249,281.97831 305.20414,281.97831 C 304.37784,281.97831 303.86168,288.70466 303.86168,299.47245 C 303.86168,314.91566 304.13709,317.06592 306.21098,317.81411 C 310.14289,319.23261 315.94382,323.68542 315.94382,325.28506 C 315.94382,326.11426 315.18869,325.81707 314.26575,324.62465 C 313.34281,323.43222 310.4733,321.30258 307.88906,319.89211 L 303.19044,317.32762 L 302.81472,300.3242 L 302.439,283.32077 L 297.78049,283.32077 L 293.12199,283.32077 L 293.12199,300.10154 L 293.12199,316.8823 L 296.81376,316.94164 C 300.40947,316.99942 300.37454,317.07011 295.47129,319.65863 C 292.70247,321.12034 290.43707,323.20802 290.43707,324.29791 C 290.43707,325.84368 288.50039,326.27953 281.63184,326.27953 C 276.08812,326.27953 273.13474,325.78096 273.65849,324.93353 z M 305.20414,277.95093 C 305.20414,275.624 304.30916,275.26601 298.49183,275.26601 C 292.67451,275.26601 291.77953,275.624 291.77953,277.95093 C 291.77953,280.27786 292.67451,280.63585 298.49183,280.63585 C 304.30916,280.63585 305.20414,280.27786 305.20414,277.95093 z M 297.14937,271.90986 C 297.14937,270.80233 297.75348,269.89616 298.49183,269.89616 C 299.23018,269.89616 299.83429,270.80233 299.83429,271.90986 C 299.83429,273.01739 300.4384,273.92355 301.17675,273.92355 C 301.9524,273.92355 302.51921,269.67242 302.51921,263.85509 L 302.51921,253.78663 L 297.8206,253.78663 L 293.12199,253.78663 L 293.12199,263.85509 C 293.12199,271.90986 293.52473,273.92355 295.13568,273.92355 C 296.24321,273.92355 297.14937,273.01739 297.14937,271.90986 z M 306.5466,249.08802 L 309.69954,245.73187 L 300.0683,245.73187 C 294.77112,245.73187 290.43707,246.07363 290.43707,246.49135 C 290.43707,246.90907 291.06242,248.41934 291.82675,249.8475 C 293.95633,253.82664 302.50948,253.38533 306.5466,249.08802 z M 311.91644,240.36202 C 311.91644,237.88768 311.02146,237.6771 300.50552,237.6771 C 289.98958,237.6771 289.0946,237.88768 289.0946,240.36202 C 289.0946,242.83637 289.98958,243.04694 300.50552,243.04694 C 311.02146,243.04694 311.91644,242.83637 311.91644,240.36202 z M 297.14937,234.32095 C 297.14937,233.21342 296.54526,232.30726 295.80691,232.30726 C 295.06856,232.30726 294.46445,233.21342 294.46445,234.32095 C 294.46445,235.42848 295.06856,236.33464 295.80691,236.33464 C 296.54526,236.33464 297.14937,235.42848 297.14937,234.32095 z M 302.51921,234.32095 C 302.51921,233.21342 301.91511,232.30726 301.17675,232.30726 C 300.4384,232.30726 299.83429,233.21342 299.83429,234.32095 C 299.83429,235.42848 300.4384,236.33464 301.17675,236.33464 C 301.91511,236.33464 302.51921,235.42848 302.51921,234.32095 z M 307.88906,234.32095 C 307.88906,233.21342 307.28495,232.30726 306.5466,232.30726 C 305.80824,232.30726 305.20414,233.21342 305.20414,234.32095 C 305.20414,235.42848 305.80824,236.33464 306.5466,236.33464 C 307.28495,236.33464 307.88906,235.42848 307.88906,234.32095 z M 307.88906,228.95111 C 307.88906,227.3849 306.09911,226.93741 299.83429,226.93741 C 293.56947,226.93741 291.77953,227.3849 291.77953,228.95111 C 291.77953,230.51731 293.56947,230.9648 299.83429,230.9648 C 306.09911,230.9648 307.88906,230.51731 307.88906,228.95111 z "
       id="path3030"
       inkscape:export-filename="/home/rob/svn/goodnight/trunk/web/gfx/tower.png"
       inkscape:export-xdpi="34.74234"
       inkscape:export-ydpi="34.74234" />
    <rect
       style="fill:none;fill-rule:evenodd;stroke:black;stroke-width:1.1489768;stroke-linecap:butt;stroke-linejoin:miter;stroke-miterlimit:4;stroke-dasharray:none;stroke-opacity:1"
       id="rect2822"
       width="142.14622"
       height="142.14622"
       x="-536.41699"
       y="-465.01273"
       transform="matrix(0.909078,-0.416626,-0.909078,-0.416626,0,0)"
       inkscape:export-filename="/home/rob/svn/goodnight/trunk/web/tiletest/blank.png"
       inkscape:export-xdpi="34.74234"
       inkscape:export-ydpi="34.74234" />
  </g>
</svg>
